<?xml version="1.0" standalone="no"?>
<!DOCTYPE svg PUBLIC "-//W3C//DTD SVG 20010904//EN"
 "http://www.w3.org/TR/2001/REC-SVG-20010904/DTD/svg10.dtd">
<svg version="1.0" xmlns="http://www.w3.org/2000/svg"
 width="260.000000pt" height="260.000000pt" viewBox="0 0 260.000000 260.000000"
 preserveAspectRatio="xMidYMid meet">
<metadata>
Created by potrace 1.14, written by Peter Selinger 2001-2017
</metadata>
<g transform="translate(0.000000,260.000000) scale(0.100000,-0.100000)"
fill="#000000" stroke="none">
<path d="M0 1300 l0 -1300 1300 0 1300 0 0 1300 0 1300 -1300 0 -1300 0 0
-1300z m815 1075 c-39 -31 -82 -47 -91 -33 -4 6 -9 5 -15 -3 -7 -11 -9 -11 -9
-1 0 8 -11 5 -32 -10 -85 -61 -134 -121 -159 -193 -7 -22 -17 -45 -22 -52 -5
-7 -5 -19 1 -29 5 -10 6 -29 2 -43 -17 -61 4 -191 31 -191 7 0 10 -3 6 -6 -3
-3 5 -24 19 -45 13 -21 24 -43 24 -48 0 -5 3 -11 8 -13 18 -8 56 -103 53 -134
-2 -24 2 -36 13 -40 9 -3 13 -10 10 -15 -3 -5 0 -9 6 -9 6 0 8 -6 4 -12 -4 -7
-3 -10 1 -5 5 4 19 0 33 -9 13 -8 30 -13 38 -10 8 3 14 1 14 -5 0 -6 6 -7 13
-2 27 17 48 13 57 -12 16 -41 121 -133 157 -137 5 0 18 -4 31 -9 12 -5 26 -8
30 -8 43 7 41 -14 -6 -42 -20 -13 -39 -27 -40 -31 -2 -5 -8 -6 -13 -2 -5 3 -9
2 -8 -3 4 -22 -2 -35 -15 -30 -20 8 -23 -21 -19 -200 7 -282 7 -298 18 -305 6
-5 6 -8 -2 -8 -7 0 -10 -6 -7 -13 2 -7 6 -40 7 -73 1 -32 5 -64 9 -69 4 -6 3
-17 -2 -25 -5 -9 -5 -19 2 -27 7 -9 7 -13 -1 -13 -7 0 -9 -5 -5 -12 5 -7 9
-33 10 -58 1 -25 5 -58 8 -75 4 -16 9 -45 12 -64 2 -19 7 -38 10 -42 3 -5
-174 -9 -395 -9 l-401 0 0 1100 0 1100 323 0 322 0 -30 -25z m1585 -1042 c-1
-1003 -2 -1066 -17 -1038 -10 17 -16 33 -15 38 1 4 -2 7 -8 7 -5 0 -10 7 -10
15 0 8 -4 15 -9 15 -5 0 -11 9 -14 20 -9 34 -10 36 -44 74 -7 8 -9 16 -6 20 4
3 1 6 -6 6 -7 0 -10 4 -7 8 3 5 -4 18 -14 30 -11 12 -20 26 -20 32 0 5 -18 36
-39 68 -22 31 -45 69 -52 85 -7 15 -16 27 -21 27 -4 0 -8 7 -8 15 0 8 -4 15
-9 15 -5 0 -12 8 -15 18 -4 9 -24 37 -47 62 -22 25 -50 58 -62 74 -12 15 -34
41 -49 57 -16 17 -28 32 -28 35 0 3 -11 15 -23 27 -13 12 -29 32 -36 45 -7 12
-16 20 -22 17 -5 -4 -9 0 -9 7 0 7 -23 37 -50 66 -28 29 -50 54 -50 57 0 3
-13 18 -30 33 -16 16 -27 32 -23 35 3 4 0 7 -8 7 -8 0 -23 14 -34 30 -11 16
-26 30 -33 30 -7 0 -10 5 -7 10 3 6 1 10 -6 10 -6 0 -20 10 -30 22 -13 14 -19
16 -19 7 0 -12 -2 -12 -9 0 -8 12 -12 12 -25 2 -12 -10 -16 -10 -16 -2 0 7 -5
9 -11 6 -5 -4 -25 -9 -42 -12 -18 -3 -39 -11 -48 -19 -16 -14 -14 -21 14 -87
51 -120 54 -130 82 -202 15 -38 33 -83 40 -100 7 -16 21 -50 30 -75 10 -25 23
-58 30 -75 7 -16 25 -61 39 -100 29 -75 33 -85 64 -155 37 -86 37 -87 -7 -115
-22 -14 -43 -25 -47 -25 -3 0 -20 -6 -37 -14 -36 -16 -96 -36 -108 -36 -6 0
-19 26 -24 50 -1 3 -9 22 -18 44 -9 21 -17 44 -17 51 0 8 -4 15 -10 17 -5 2
-11 12 -13 23 -2 11 -9 31 -14 45 -6 14 -27 65 -48 114 -20 49 -40 96 -45 105
-9 18 -18 41 -50 121 -11 30 -25 64 -30 75 -4 11 -16 41 -27 67 -10 27 -22 48
-26 48 -5 0 -6 4 -2 9 3 5 -6 30 -20 54 -28 52 -22 65 38 72 38 5 119 37 142
57 94 80 135 143 131 199 -1 16 1 29 5 29 3 0 4 12 2 28 -2 15 -5 41 -8 59 -2
18 -6 37 -10 43 -3 5 5 14 19 20 50 19 75 89 51 146 -13 32 -47 59 -59 47 -3
-3 -6 5 -7 18 -1 30 -5 54 -17 102 -6 20 -8 37 -5 37 3 0 0 7 -7 15 -7 8 -10
15 -7 15 4 0 0 18 -8 39 -7 22 -11 42 -8 45 4 3 2 6 -4 6 -6 0 -9 8 -6 19 3
10 0 22 -6 25 -6 4 -11 15 -11 25 0 20 -48 55 -122 89 -27 12 -48 24 -48 27 0
3 275 5 610 5 l610 0 0 -1067z m-550 -617 c14 -19 27 -33 29 -31 5 6 91 -122
91 -135 0 -6 4 -8 10 -5 5 3 12 -6 16 -20 3 -14 13 -25 21 -25 8 0 12 -4 9 -9
-5 -8 8 -26 63 -87 11 -12 17 -25 14 -28 -3 -3 2 -8 11 -12 9 -3 16 -12 16
-20 0 -8 5 -14 12 -14 6 0 9 -3 6 -6 -3 -3 4 -16 16 -28 32 -35 66 -80 66 -88
0 -5 -47 -8 -104 -8 l-105 0 -62 128 c-35 70 -62 130 -61 135 1 4 -2 7 -6 7
-5 0 -9 6 -10 13 -5 35 -11 56 -30 97 -13 28 -17 46 -10 49 5 2 6 6 2 10 -9 6
-54 93 -54 105 0 19 38 1 60 -28z m-618 -213 c-2 -7 1 -13 7 -13 6 0 11 -8 11
-18 0 -10 9 -35 20 -56 10 -21 22 -53 25 -70 4 -17 9 -43 12 -58 3 -15 9 -25
14 -22 5 3 6 -2 3 -10 -3 -8 0 -24 6 -36 11 -20 10 -21 -51 -18 -67 3 -66 2
-72 73 -1 17 -5 35 -9 40 -3 6 -5 31 -4 58 0 26 -3 47 -9 48 -5 0 -5 3 1 5 10
4 10 109 -1 141 -2 6 1 14 8 16 14 5 46 -62 39 -80z"/>
</g>
</svg>
