<?xml version="1.0" encoding="utf-8"?>
<!-- Generator: Adobe Illustrator 25.4.6, SVG Export Plug-In . SVG Version: 6.00 Build 0)  -->
<svg version="1.1" id="Layer_1" xmlns="http://www.w3.org/2000/svg" xmlns:xlink="http://www.w3.org/1999/xlink" x="0px" y="0px"
	 viewBox="0 0 119.4 374.9" style="enable-background:new 0 0 119.4 374.9;" xml:space="preserve">
<style type="text/css">
	.st0{fill:#2C2C2C;}
	.st1{fill:#DE9D01;}
	.st2{fill:#FFFFFF;}
	.st3{fill:#BF8005;}
	.st4{fill:#FFAF82;}
	.st5{fill:#01C480;}
	.st6{fill:#E2E2E2;}
	.st7{fill:#F5C4B3;}
	.st8{fill:#DCF5F9;}
	.st9{opacity:0.3;fill:#FFB495;enable-background:new    ;}
	.st10{fill:url(#SVGID_1_);}
	.st11{fill:#3F0F1B;}
	.st12{fill:#561326;}
	.st13{fill:url(#SVGID_00000055686760028121163710000004659464378781829565_);}
	.st14{fill:#832621;}
	.st15{clip-path:url(#SVGID_00000079481081137890000590000003049209818177242006_);}
	.st16{fill:#D14A4A;}
	.st17{fill:url(#SVGID_00000014620377308652234920000003503710880526507443_);}
	.st18{fill:url(#SVGID_00000181797034590255909330000001196704933633391509_);}
	.st19{fill:url(#SVGID_00000115512799694684908030000013877635265951789446_);}
	.st20{fill:url(#SVGID_00000047038432099884610560000012284675870001041029_);}
	.st21{fill:url(#SVGID_00000170254950227101417070000005988148309019814532_);}
	.st22{fill:url(#SVGID_00000005944759446013832100000006580154672047049867_);}
	.st23{fill:url(#SVGID_00000183928645881577083490000011159315998930057402_);}
</style>
<g>
	<g id="Layer_2_00000084500741735388248360000001069056297001408395_">
		<g id="Layer_1-2">
			<path class="st0" d="M88.2,200.4c0,0,4.4,60.4,3.9,75.5l4,79.1l-13.2-0.8c-2.9-36.3-7.8-54.5-7.6-77.8L64,206
				C71.6,202.6,79.8,200.7,88.2,200.4z"/>
			<path class="st1" d="M82.4,353.5c0.4-5.2,5-8,9.8-6.7s5.2,9,5.2,9c3.8,3.8,6.2,8.7,6.9,14c0,0.2,0.1,0.4,0.1,0.6
				c0.2,1.7-1,3.2-2.6,3.4c-7.9,1.4-16,1.4-23.9,0.1c-1.6-0.3-2.7-1.8-2.5-3.5c0-0.1,0-0.1,0-0.2c0.5-3.9,1.6-11.2,6.4-13.9
				L82.4,353.5z"/>
			<path class="st2" d="M84.2,359.5l-0.4-1c0.3-0.1,7.1-3,12.1,0.2l-0.6,0.9C90.8,356.7,84.3,359.5,84.2,359.5z"/>
			<path class="st2" d="M85.1,359.4c-0.1,0.6-0.7,1.1-1.3,1c-0.6-0.1-1.1-0.7-1-1.3c0.1-0.6,0.7-1.1,1.3-1
				C84.7,358.1,85.2,358.7,85.1,359.4C85.1,359.4,85.1,359.4,85.1,359.4z"/>
			<path class="st2" d="M96.8,359.1c-0.1,0.6-0.7,1.1-1.3,1c0,0,0,0,0,0c-0.6-0.1-1.1-0.7-1-1.3c0.1-0.6,0.7-1.1,1.3-1
				C96.5,357.9,96.9,358.5,96.8,359.1z"/>
			<path class="st2" d="M84.4,356.6l-0.4-1c0.3-0.1,7.1-3,12.1,0.2l-0.6,0.9C91,353.8,84.4,356.6,84.4,356.6z"/>
			<path class="st2" d="M85.2,356.5c-0.1,0.6-0.7,1.1-1.3,1c-0.6-0.1-1.1-0.7-1-1.3c0.1-0.6,0.7-1.1,1.3-1
				C84.9,355.2,85.3,355.8,85.2,356.5C85.2,356.4,85.2,356.5,85.2,356.5z"/>
			<path class="st2" d="M97,356.2c-0.1,0.6-0.7,1.1-1.3,1c-0.6-0.1-1.1-0.7-1-1.3c0.1-0.6,0.7-1.1,1.3-1
				C96.6,354.9,97.1,355.5,97,356.2C97,356.2,97,356.2,97,356.2z"/>
			<path class="st2" d="M84.2,362.4l-0.4-1c0.3-0.1,7.1-3,12.1,0.2l-0.6,0.9C90.8,359.6,84.3,362.4,84.2,362.4z"/>
			<path class="st2" d="M85.1,362.3c-0.1,0.6-0.7,1.1-1.3,1c-0.6-0.1-1.1-0.7-1-1.3c0.1-0.6,0.7-1.1,1.3-1
				C84.7,361,85.2,361.6,85.1,362.3C85.1,362.3,85.1,362.3,85.1,362.3z"/>
			<path class="st2" d="M96.8,362c-0.1,0.6-0.7,1.1-1.3,1c0,0,0,0,0,0c-0.6-0.1-1.1-0.7-1-1.3c0.1-0.6,0.7-1.1,1.3-1
				C96.5,360.8,96.9,361.4,96.8,362z"/>
			<path class="st2" d="M92.8,350.1c-2.1-0.7-4.4-0.6-6.5,0.3c-0.3,0.8-0.3,1.6,0,2.4c2.2-0.4,4.4-0.4,6.6-0.2
				C93.2,351.8,93.2,350.9,92.8,350.1z"/>
			<path class="st3" d="M101.8,373.8c-7.9,1.4-16,1.4-23.9,0.1c-1.6-0.3-2.7-1.8-2.5-3.5c0-0.1,0-0.1,0-0.2c9.5,2.6,19.6,2.4,29-0.5
				c0,0.2,0.1,0.4,0.1,0.6C104.6,372,103.4,373.5,101.8,373.8z"/>
			<path class="st0" d="M30.2,200.4c0,0-4.4,60.4-3.9,75.5l-4,79.2l13.2-0.8c2.9-36.3,7.8-54.5,7.6-77.8L54.3,206
				C46.7,202.6,38.5,200.7,30.2,200.4z"/>
			<path class="st1" d="M35.9,353.5c-0.4-5.2-5-8-9.8-6.7s-5.2,9-5.2,9c-3.8,3.8-6.2,8.7-6.9,14c0,0.2-0.1,0.4-0.1,0.6
				c-0.2,1.7,1,3.2,2.6,3.4c7.9,1.4,16,1.4,23.9,0.1c1.6-0.3,2.7-1.8,2.5-3.5c0-0.1,0-0.1,0-0.2c-0.5-3.9-1.6-11.2-6.4-13.9
				L35.9,353.5z"/>
			<path class="st2" d="M34.1,359.5l0.4-1c-0.3-0.1-7.1-3-12.1,0.2l0.6,0.9C27.5,356.7,34,359.5,34.1,359.5z"/>
			<path class="st2" d="M33.2,359.4c0.1,0.6,0.7,1.1,1.3,1c0.6-0.1,1.1-0.7,1-1.3c-0.1-0.6-0.7-1.1-1.3-1
				C33.6,358.1,33.2,358.7,33.2,359.4C33.2,359.4,33.2,359.4,33.2,359.4z"/>
			<path class="st2" d="M21.5,359.1c0.1,0.6,0.7,1.1,1.3,1c0.6-0.1,1.1-0.7,1-1.3c-0.1-0.6-0.7-1.1-1.3-1
				C21.9,357.8,21.4,358.4,21.5,359.1C21.5,359.1,21.5,359.1,21.5,359.1z"/>
			<path class="st2" d="M34,356.6l0.4-1c-0.3-0.1-7.1-3-12.1,0.2l0.6,0.9C27.4,353.8,33.9,356.6,34,356.6z"/>
			<path class="st2" d="M33.1,356.5c0.1,0.6,0.7,1.1,1.3,1c0.6-0.1,1.1-0.7,1-1.3c-0.1-0.6-0.7-1.1-1.3-1
				C33.5,355.2,33,355.8,33.1,356.5C33.1,356.4,33.1,356.5,33.1,356.5z"/>
			<path class="st2" d="M21.4,356.2c0.1,0.6,0.7,1.1,1.3,1c0.6-0.1,1.1-0.7,1-1.3c-0.1-0.6-0.7-1.1-1.3-1
				C21.8,354.9,21.3,355.5,21.4,356.2C21.4,356.2,21.4,356.2,21.4,356.2z"/>
			<path class="st2" d="M34.1,362.4l0.4-1c-0.3-0.1-7.1-3-12.1,0.2l0.6,0.9C27.5,359.6,34,362.4,34.1,362.4z"/>
			<path class="st2" d="M33.2,362.3c0.1,0.6,0.7,1.1,1.3,1c0.6-0.1,1.1-0.7,1-1.3c-0.1-0.6-0.7-1.1-1.3-1
				C33.6,361,33.2,361.6,33.2,362.3C33.2,362.3,33.2,362.3,33.2,362.3z"/>
			<path class="st2" d="M21.5,362c0.1,0.6,0.7,1.1,1.3,1c0.6-0.1,1.1-0.7,1-1.3c-0.1-0.6-0.7-1.1-1.3-1
				C21.9,360.7,21.4,361.3,21.5,362C21.5,362,21.5,362,21.5,362z"/>
			<path class="st2" d="M25.5,350.1c2.1-0.7,4.4-0.6,6.5,0.3c0.3,0.8,0.3,1.6,0,2.4c-2.2-0.4-4.4-0.4-6.6-0.2
				C25.1,351.8,25.2,350.9,25.5,350.1z"/>
			<path class="st3" d="M16.6,373.8c7.9,1.4,16,1.4,23.9,0.1c1.6-0.3,2.7-1.8,2.5-3.5c0-0.1,0-0.1,0-0.2c-9.5,2.6-19.5,2.4-29-0.5
				c0,0.2-0.1,0.4-0.1,0.6C13.8,372,15,373.5,16.6,373.8z"/>
			<path class="st4" d="M14,186.4c0.7,2.2,1.5,4.4,2.5,6.6c1.3,2.8,0.4,4.9,1.2,7.4s-2.2,2.3-2.8-0.3s-0.3-3.9-0.9-3.9
				s-2.1,6.3-2.3,8.1s0.1,6.4-0.5,7.1s-2.3-1.9-1.8-6.6s0.1-4.7,0.1-4.7S8.9,202,8.5,204c-0.4,1.9-0.5,3.8-0.4,5.8
				c0.1,1.4-1.3,2-1.7,1.3s-1.1-5.5-0.5-7.3s1.2-5.1,1.2-5.1s-1.8,4.2-2.1,5.3s0.2,5.3-0.8,6.1c-0.4,0.3-1.7-0.1-1.5-6.1
				c0.2-1.6,0.6-3.2,1.1-4.7c-0.7,1-1.2,2-1.5,3.2c-0.4,1.6-0.7,3.2-0.8,4.9C1.4,209,0,208.8,0,205.9s0.5-6,1.3-7.5s2-10.4,4.4-13.7
				L14,186.4z"/>
			<path class="st5" d="M41,91.1c0,0-6.8,31.7-12.6,42.7c0,0-3.1,15.4-14.1,53.3c0,0-5.7,2.3-9.1-2.1c0,0,5.3-41.6,8.5-54.9
				c0,0,14.3-46,19.1-51.9C32.8,78.1,40.2,81.1,41,91.1z"/>
			<path class="st4" d="M105.4,186.4c-0.7,2.2-1.5,4.4-2.4,6.6c-1.3,2.8-0.4,4.9-1.2,7.4s2.2,2.3,2.8-0.3s0.3-3.9,0.9-3.9
				s2.1,6.3,2.3,8.1s-0.2,6.4,0.5,7.1s2.3-1.9,1.8-6.6s-0.1-4.7-0.1-4.7s0.4,1.9,0.9,3.9c0.4,1.9,0.5,3.8,0.4,5.8
				c-0.1,1.4,1.3,2,1.7,1.3s1.1-5.5,0.5-7.3s-1.2-5.1-1.2-5.1s1.8,4.3,2.1,5.4s-0.2,5.3,0.8,6.1c0.4,0.3,1.7-0.1,1.5-6.1
				c-0.2-1.6-0.6-3.2-1.1-4.7c0.7,1,1.2,2,1.5,3.2c0.4,1.6,0.7,3.2,0.8,4.9c0.1,1.6,1.6,1.4,1.6-1.4s-0.5-6-1.3-7.5
				s-2-10.4-4.4-13.7L105.4,186.4z"/>
			<path class="st5" d="M78.5,91.1c0,0,6.8,31.7,12.5,42.7c0,0,3.2,15.4,14.1,53.3c0,0,5.7,2.3,9.1-2.1c0,0-5.3-41.6-8.5-54.9
				c0,0-14.3-46-19.1-51.9C86.6,78.1,79.2,81.1,78.5,91.1z"/>
			<path class="st0" d="M30.1,202.8c-0.1-7.3,0.9-14.5,3.1-21.4c20.6-1.3,53,0,53,0s0.1,0.2,0.1,0.4s3.3,11.7,1.4,21.1
				C67.7,215.2,48.4,214.4,30.1,202.8z"/>
			<path class="st5" d="M88.8,186.5c-5.3,2.9-10.9,5.1-16.8,6.7c-4.1,1-8.3,1.6-12.5,1.5c-3.7,0-7.4-0.4-11-1.2
				c-6.3-1.5-12.3-3.9-17.9-7l2.4-50l-0.2-58.4l14.8-4l4.5-1.2c4.9-1.3,10.1-1.3,15,0l5,1.3l14.3,3.8l-0.3,58.4L88.8,186.5z"/>
			<path class="st2" d="M72.1,74.3v118.9c-4.1,1-8.3,1.6-12.5,1.5c-3.7,0-7.4-0.4-11-1.2v-3v-3.1l-0.1-7.2v-3.1l-0.1-7.1v-3.1v-7.2
				v-3.1l-0.1-7.2v-3.1l-0.1-7.2v-3.1l-0.1-7.2v-3.1l-0.2-7.2v-3.1l-0.1-7.2v-3.1L47.8,98v-3.1l-0.1-7.2v-3.1l-0.1-7.2v-3v-0.3
				l4.5-1.2c4.9-1.3,10.1-1.3,15,0L72.1,74.3L72.1,74.3z"/>
			<path class="st6" d="M72.1,77.4v3c-4.1,0.7-8.2,1-12.3,1c-4.1,0-8.1-0.3-12.2-0.9v-3C55.8,78.8,64,78.7,72.1,77.4L72.1,77.4z"/>
			<path class="st6" d="M72.1,86v3c-4,0.7-8,1-12.1,1c-4.1,0-8.2-0.3-12.3-0.9V86C55.8,87.3,64,87.3,72.1,86z"/>
			<path class="st6" d="M72.1,94.9v3.1c-3.9,0.7-7.9,1-11.9,1c-4.1,0-8.3-0.4-12.4-1v-3.1C55.9,96.2,64.1,96.2,72.1,94.9z"/>
			<path class="st6" d="M72.1,105.2v3.1c-3.9,0.7-7.8,1-11.8,1c-4.2,0-8.3-0.3-12.4-1v-3.1C55.9,106.6,64.1,106.6,72.1,105.2z"/>
			<path class="st6" d="M72.1,115.5v3c-3.8,0.7-7.7,1-11.6,1c-4.2,0-8.4-0.3-12.5-1v-3.1C56,116.9,64.1,116.9,72.1,115.5z"/>
			<path class="st6" d="M72.1,125.8v3.1c-3.8,0.7-7.6,1-11.5,1c-4.2,0-8.4-0.4-12.5-1.1v-3.1C56,127.2,64.1,127.2,72.1,125.8z"/>
			<path class="st6" d="M72.1,136.1v3.1c-3.8,0.7-7.6,1-11.4,1c-4.2,0-8.4-0.4-12.6-1.1V136C56.1,137.5,64.2,137.6,72.1,136.1z"/>
			<path class="st6" d="M72.1,146.5v3.1c-3.7,0.7-7.5,1-11.2,1c-4.2,0-8.5-0.4-12.6-1.2v-3.1C56.1,147.8,64.2,147.9,72.1,146.5z"/>
			<path class="st6" d="M72.1,156.8v3.1c-3.7,0.7-7.4,1-11.2,1c-4.2,0-8.5-0.4-12.6-1.2v-3.1C56.2,158.2,64.2,158.2,72.1,156.8z"/>
			<path class="st6" d="M72.1,167.1v3.1c-3.6,0.7-7.3,1-11,1c-4.3,0-8.5-0.4-12.7-1.2v-3.1C56.2,168.5,64.3,168.6,72.1,167.1z"/>
			<path class="st6" d="M72.1,177.4v3.1c-3.6,0.7-7.3,1-11,1c-4.3,0-8.5-0.4-12.7-1.3v-3.1C56.3,178.8,64.3,178.9,72.1,177.4z"/>
			<path class="st6" d="M72.1,187.7v3.1c-3.6,0.7-7.2,1-10.9,1c-4.3,0-8.5-0.4-12.7-1.3v-3.1C56.3,189.1,64.3,189.2,72.1,187.7z"/>
			<path class="st7" d="M66.6,61.7l-0.3,4.9L66,72.7c0,0-1.2,2.3-6.7,2.3s-6.6-1.6-6.6-1.6l-0.2-2.7l-0.7-9L66.6,61.7z"/>
			<path class="st8" d="M74,77.1v0.3C74,77.3,74,77.2,74,77.1z"/>
			<path class="st9" d="M47.9,67.1c0,0,4.4,5,10.4,5s11.2-4.3,11.2-4.3L58,67.1H47.9z"/>
			<path class="st7" d="M85.3,48.1c-0.6,2-5.2,6.4-6.8,3.3L79.6,41l0,0c1.1-0.6,2.3-0.8,3.5-0.5c0.2,0,0.3,0.1,0.5,0.2
				C86.1,41.9,86,45.8,85.3,48.1z"/>
			
				<linearGradient id="SVGID_1_" gradientUnits="userSpaceOnUse" x1="78.46" y1="329.5917" x2="85.76" y2="329.5917" gradientTransform="matrix(1 0 0 -1 0 376)">
				<stop  offset="0" style="stop-color:#FFAA8B"/>
				<stop  offset="1" style="stop-color:#FFAA8B;stop-opacity:0"/>
			</linearGradient>
			<path class="st10" d="M85.3,48.1c-0.6,2-5.2,6.4-6.8,3.3L79.6,41l0,0c1.1-0.6,2.3-0.8,3.5-0.5c0.2,0,0.3,0.1,0.5,0.2
				C86.1,41.9,86,45.8,85.3,48.1z"/>
			<path class="st7" d="M37.2,33.3c0,0,1.7,17.4,2.2,21.2s4.5,15.6,20,15.2c11.2-0.5,18.3-3.8,19.5-19.8s1.2-20.4,1.2-20.4
				l-3.6-10.8l-3.6-5l-12.9-1.3l-11.2,0.1l-7.4,0.8l-1.5,4.6L37.2,33.3z"/>
			<path class="st11" d="M83.1,40.5c-1.2-0.2-2.5-0.1-3.5,0.5v-7.2c0-1.5-0.4-3.1-1.2-4.4L74,21.7c1.2-1.1,2.2-2.3,3-3.7
				c1.1-2,1.8-4.2,2-6.5c2.5,2.5,4.7,5.1,6.7,8C86.1,21,84.2,36.3,83.1,40.5z"/>
			<path class="st11" d="M79,11.6c-0.2,2.3-0.9,4.5-2,6.4c-0.8,1.4-1.8,2.6-3,3.7l0,0l-0.2-0.4l0,0l-0.6-0.1l-4.7-0.7l-1-0.1
				c-3.4-0.5-8-1.1-13.5-1.8c-0.7,0.8-1.3,1.4-1.9,2l0,0l-0.7,0.6c-5.4,4.7-8.9,3.6-12.3,3.2c-0.3,3-1.2,15.1-1.3,16.4v-0.1
				c-1.2-0.7-2.7-0.9-4.1-0.4l-0.4,0.2c-0.4-2.5-2.3-16-2.1-16.9c0.9-3.1,2.4-6,4.4-8.6c-1.7,0.8-2.1,0.4-2.1,0.4s0.9-0.4,3.8-3.9
				c3.3-4,8-6.6,13.1-7.4c1.9-0.2,3.9-0.2,5.8,0.2C62.8,5.2,71,7.7,74.4,8.7c1.7,0.6,3.2,1.5,4.5,2.8L79,11.6z"/>
			<path class="st11" d="M37.9,40.9L37.9,40.9C36,39.5,33.6,41,33.6,41l-0.1-0.4l0.4-0.2c1.3-0.5,2.8-0.4,4.1,0.4V40.9z"/>
			<path class="st11" d="M51.9,10.7c0,0-4.6,6.2,1.9,11.8c1.7,1.4,4.2,2,6.3,2.2c2.9,0.4,5.8,0.2,8.6-0.6c7.7-2.2,11.9-11,9.7-18.6
				c-0.3-1.1-0.8-2.1-1.4-3.1c-0.2,1.5-0.8,3-1.9,4.1c0.4-1.2,0.6-4.9-0.4-6.5C72,3.3,68.1,5.2,63.8,5.3c1.1-0.7,1.4-2.9,1.3-4.2
				c-0.5,1.1-7.1,3-8.8,3.2L51.9,10.7z"/>
			<path class="st12" d="M79,11.6c-0.2,2.3-0.9,4.5-2,6.4c-0.8,1.4-1.8,2.6-3,3.7l0,0c-0.5,0.5-1.1,0.9-1.8,1.3
				c-2,1.2-4.2,1.9-6.6,2.1c-1.1,0.1-2.3,0.1-3.4,0c-0.6-0.1-1.1-0.1-1.7-0.2s-1.1-0.2-1.7-0.3c0.6,0,1.1,0.1,1.7,0.1s1.1,0,1.7,0
				c1.1,0,2.2-0.1,3.3-0.2c2.2-0.3,4.3-1,6.2-2.1c0.5-0.3,1-0.6,1.4-1c1.3-1,2.3-2.2,3.2-3.6c0.6-0.9,1.1-1.9,1.5-2.9
				c0.3-0.6,0.5-1.2,0.7-1.8C78.8,12.5,78.9,12,79,11.6z"/>
			<path class="st12" d="M72.5,14.5c-0.6,1.6-1.4,3-2.4,4.4c-1,1.3-2.2,2.5-3.6,3.5c-1.4,1-3,1.6-4.6,1.9c-1.7,0.3-3.4,0.2-5-0.2
				h1.2c0.4,0,0.8,0,1.3,0l1.2-0.1l1.2-0.3c1.5-0.4,3-1.1,4.3-2c1.3-0.9,2.5-2,3.6-3.2C70.7,17.2,71.6,15.9,72.5,14.5z"/>
			<path class="st12" d="M48,13.8c-0.1,1.5,0.1,2.9,0.7,4.3c0.3,0.6,0.7,1.2,1.1,1.8c0.5,0.5,1.1,1,1.7,1.5c-0.8-0.2-1.5-0.5-2.1-1
				c-0.6-0.5-1.1-1.2-1.5-1.9c-0.3-0.7-0.5-1.5-0.4-2.3C47.5,15.3,47.7,14.5,48,13.8z"/>
			<path class="st12" d="M51.3,11.9c-0.6,1.4-0.9,3-0.8,4.5c0.1,0.8,0.3,1.5,0.5,2.2c0.1,0.4,0.3,0.7,0.5,1.1s0.4,0.7,0.6,1.1
				c-0.3-0.3-0.6-0.5-0.9-0.8c-0.3-0.3-0.5-0.6-0.7-1c-0.4-0.7-0.7-1.5-0.8-2.4c-0.1-0.8,0-1.7,0.3-2.5
				C50.3,13.2,50.7,12.5,51.3,11.9z"/>
			<path class="st7" d="M37.9,40.8c-1.2-0.7-2.7-0.9-4.1-0.4c-2.5,1.3-2.4,5.1-1.7,7.4c0.6,2,5.2,6.4,6.8,3.3"/>
			
				<linearGradient id="SVGID_00000033336035726175621680000013718483310018191540_" gradientUnits="userSpaceOnUse" x1="31.72" y1="329.815" x2="39.0175" y2="329.815" gradientTransform="matrix(1 0 0 -1 0 376)">
				<stop  offset="0" style="stop-color:#FFAA8B;stop-opacity:0"/>
				<stop  offset="1" style="stop-color:#FFAA8B"/>
			</linearGradient>
			<path style="fill:url(#SVGID_00000033336035726175621680000013718483310018191540_);" d="M39,51.2c-1.7,3.1-6.2-1.3-6.8-3.3
				c-0.7-2.2-0.8-5.8,1.3-7.2l0.4-0.2c1.3-0.5,2.8-0.4,4.1,0.4v0.1L39,51.2z"/>
			<path class="st11" d="M52.6,34.8c0,0,0.1-2.8-1.3-2.9s-10-1.7-10.1,5.3C43,35.5,45.7,33.8,52.6,34.8z"/>
			<path class="st11" d="M64.7,34.8c0,0-0.1-2.8,1.2-2.9s10-1.7,10.2,5.3C74.3,35.5,71.6,33.8,64.7,34.8z"/>
			<path class="st14" d="M67.9,56.5c-0.3-0.3-4.2-0.5-9.3-0.5s-9,0.2-9.3,0.5s1.9,8.2,9.3,8.2S68.3,56.8,67.9,56.5z"/>
			<g>
				<defs>
					<path id="SVGID_00000054968267025375134560000010248709083611676318_" d="M67.9,56.5c-0.3-0.3-4.2-0.5-9.3-0.5s-9,0.2-9.3,0.5
						s1.9,8.2,9.3,8.2S68.3,56.8,67.9,56.5z"/>
				</defs>
				<clipPath id="SVGID_00000170985180254134729500000013801846669997441687_">
					<use xlink:href="#SVGID_00000054968267025375134560000010248709083611676318_"  style="overflow:visible;"/>
				</clipPath>
				<g style="clip-path:url(#SVGID_00000170985180254134729500000013801846669997441687_);">
					<path class="st16" d="M66.7,62c-2,3.2-5,6.2-8.3,6c-3.6-0.1-6.2-3-7.8-5.7C53.4,59.8,60.8,57.1,66.7,62z"/>
					<path class="st2" d="M65.7,54.5c-0.1,2.2-0.6,2.2-0.6,2.2c-2.1,1-10,2-13,0c-0.3-0.2-0.4-1.3-0.4-2c0.1-0.1,0.3-0.2,0.5-0.2
						C57.1,54.2,63.4,53.8,65.7,54.5z"/>
				</g>
			</g>
			
				<linearGradient id="SVGID_00000183971696192289072780000008680749405810804100_" gradientUnits="userSpaceOnUse" x1="58.2876" y1="324.5205" x2="58.2876" y2="340.2705" gradientTransform="matrix(1 0 0 -1 0 376)">
				<stop  offset="0" style="stop-color:#FFAA8B;stop-opacity:0.7"/>
				<stop  offset="0.1" style="stop-color:#FFAA8B;stop-opacity:0.58"/>
				<stop  offset="0.29" style="stop-color:#FFAA8B;stop-opacity:0.38"/>
				<stop  offset="0.47" style="stop-color:#FFAA8B;stop-opacity:0.21"/>
				<stop  offset="0.63" style="stop-color:#FFAA8B;stop-opacity:0.1"/>
				<stop  offset="0.77" style="stop-color:#FFAA8B;stop-opacity:3.000000e-02"/>
				<stop  offset="0.87" style="stop-color:#FFAA8B;stop-opacity:0"/>
			</linearGradient>
			<path style="fill:url(#SVGID_00000183971696192289072780000008680749405810804100_);" d="M59.3,36.2H57c0.4,7.4-2.8,11.7-2,13.3
				c1,1.8,3.2,2.5,5,1.5c0.7-0.3,1.2-0.9,1.5-1.5C62.4,47.9,59.3,45.7,59.3,36.2z"/>
			<path class="st2" d="M51.6,43.1c-1.3-3-6-5.6-8.8-0.9c-0.2,0.4-0.2,0.8,0,1.2c0.8,1.3,3.1,3.8,8.2,1.3
				C51.5,44.4,51.8,43.7,51.6,43.1z"/>
			
				<linearGradient id="SVGID_00000101096350157117982540000009261833220985276837_" gradientUnits="userSpaceOnUse" x1="785.96" y1="333.1311" x2="780.53" y2="333.1311" gradientTransform="matrix(1 0 0 -1 -735.88 376)">
				<stop  offset="0" style="stop-color:#248157"/>
				<stop  offset="1" style="stop-color:#24816A;stop-opacity:0"/>
			</linearGradient>
			<path style="fill:url(#SVGID_00000101096350157117982540000009261833220985276837_);" d="M50,42.3c0.3,1.5-0.7,2.9-2.1,3.2
				c-1.5,0.3-2.9-0.7-3.2-2.1s0.7-2.9,2.1-3.2c0.4-0.1,0.7-0.1,1.1,0C48.9,40.4,49.8,41.3,50,42.3z"/>
			
				<linearGradient id="SVGID_00000055689214056626299240000009764083713854820501_" gradientUnits="userSpaceOnUse" x1="784.7483" y1="333.1379" x2="781.7383" y2="333.1379" gradientTransform="matrix(1 0 0 -1 -735.88 376)">
				<stop  offset="0" style="stop-color:#248157"/>
				<stop  offset="1" style="stop-color:#24816A;stop-opacity:0"/>
			</linearGradient>
			<path style="fill:url(#SVGID_00000055689214056626299240000009764083713854820501_);" d="M48.8,42.6c0.1,0.8-0.4,1.6-1.2,1.7
				s-1.6-0.4-1.7-1.2s0.4-1.6,1.2-1.7c0.2,0,0.3,0,0.5,0C48.2,41.5,48.7,42,48.8,42.6z"/>
			<path class="st2" d="M48.3,42.9c0,0.3,0.2,0.5,0.5,0.5s0.5-0.2,0.5-0.5s-0.2-0.5-0.5-0.5S48.3,42.6,48.3,42.9z"/>
			<path class="st2" d="M45.9,41.7c-0.1,0.5,0.2,1.1,0.7,1.2c0.5,0.1,1.1-0.2,1.2-0.7c0.1-0.5-0.2-1.1-0.7-1.2c-0.2,0-0.3,0-0.5,0
				C46.3,41,46,41.3,45.9,41.7z"/>
			
				<linearGradient id="SVGID_00000084495947676645489610000012183687259132695732_" gradientUnits="userSpaceOnUse" x1="42.39" y1="331.1595" x2="50.93" y2="331.1595" gradientTransform="matrix(1 0 0 -1 0 376)">
				<stop  offset="0" style="stop-color:#FFAA8B;stop-opacity:0.7"/>
				<stop  offset="0.1" style="stop-color:#FFAA8B;stop-opacity:0.58"/>
				<stop  offset="0.29" style="stop-color:#FFAA8B;stop-opacity:0.38"/>
				<stop  offset="0.47" style="stop-color:#FFAA8B;stop-opacity:0.21"/>
				<stop  offset="0.63" style="stop-color:#FFAA8B;stop-opacity:0.1"/>
				<stop  offset="0.77" style="stop-color:#FFAA8B;stop-opacity:3.000000e-02"/>
				<stop  offset="0.87" style="stop-color:#FFAA8B;stop-opacity:0"/>
			</linearGradient>
			<path style="fill:url(#SVGID_00000084495947676645489610000012183687259132695732_);" d="M42.7,43.2c0.7,1.4,2,2.3,3.5,2.6
				c0.8,0.1,1.5,0.1,2.3-0.1c0.8-0.1,1.5-0.3,2.3-0.6c-0.7,0.5-1.4,0.8-2.2,1c-0.8,0.2-1.6,0.3-2.5,0.2c-0.8-0.1-1.6-0.5-2.3-1.1
				C43.2,44.8,42.8,44,42.7,43.2z"/>
			<path class="st11" d="M51.5,44.2c0.2-0.5,0.1-1.1-0.3-1.5c-0.3-0.5-0.7-0.9-1.1-1.3c-0.8-0.8-1.7-1.2-2.8-1.4c-1-0.2-2.1,0-3,0.6
				c-0.4,0.3-0.8,0.7-1.2,1.1c-0.2,0.2-0.3,0.5-0.4,0.7c-0.1,0.3-0.1,0.6,0,0.8c-0.1-0.3-0.2-0.6-0.1-0.8c0.1-0.3,0.2-0.6,0.3-0.8
				c0.3-0.5,0.6-1,1.1-1.4c1-0.8,2.2-1.1,3.4-0.9c1.2,0.2,2.3,0.8,3.1,1.7c0.4,0.5,0.7,1,0.9,1.5C51.7,43,51.8,43.7,51.5,44.2z"/>
			<path class="st2" d="M65.8,43.1c1.3-3,6-5.6,8.8-0.9c0.2,0.4,0.2,0.8,0,1.2c-0.8,1.3-3.1,3.8-8.2,1.3
				C65.8,44.4,65.5,43.7,65.8,43.1z"/>
			
				<linearGradient id="SVGID_00000027600287964149338020000015940787396718441864_" gradientUnits="userSpaceOnUse" x1="-1086.306" y1="333.1332" x2="-1091.7361" y2="333.1332" gradientTransform="matrix(-1 0 0 -1 -1019.07 376)">
				<stop  offset="0" style="stop-color:#248157"/>
				<stop  offset="1" style="stop-color:#24816A;stop-opacity:0"/>
			</linearGradient>
			<path style="fill:url(#SVGID_00000027600287964149338020000015940787396718441864_);" d="M67.3,42.3c-0.3,1.5,0.7,2.9,2.1,3.2
				c1.5,0.3,2.9-0.7,3.2-2.1c0.3-1.5-0.7-2.9-2.1-3.2c-0.4-0.1-0.7-0.1-1.1,0C68.3,40.4,67.5,41.3,67.3,42.3z"/>
			
				<linearGradient id="SVGID_00000182518919389878080380000000277658183173476031_" gradientUnits="userSpaceOnUse" x1="-1087.52" y1="333.1432" x2="-1090.52" y2="333.1432" gradientTransform="matrix(-1 0 0 -1 -1019.07 376)">
				<stop  offset="0" style="stop-color:#248157"/>
				<stop  offset="1" style="stop-color:#24816A;stop-opacity:0"/>
			</linearGradient>
			<path style="fill:url(#SVGID_00000182518919389878080380000000277658183173476031_);" d="M68.5,42.6c-0.1,0.8,0.4,1.6,1.3,1.7
				c0.2,0,0.3,0,0.5,0c0.6-0.1,1.1-0.6,1.2-1.2c0.1-0.8-0.4-1.6-1.3-1.7S68.6,41.8,68.5,42.6L68.5,42.6z"/>
			<path class="st2" d="M69,42.9c0,0.3-0.2,0.5-0.5,0.5S68,43.2,68,42.9s0.2-0.5,0.5-0.5S69,42.6,69,42.9z"/>
			<path class="st2" d="M71.4,41.7c0.1,0.5-0.2,1.1-0.7,1.2c-0.5,0.1-1.1-0.2-1.2-0.7s0.2-1.1,0.7-1.2c0.2,0,0.3,0,0.5,0
				C71.1,41,71.3,41.3,71.4,41.7z"/>
			
				<linearGradient id="SVGID_00000123417493167266654960000018300613176510263702_" gradientUnits="userSpaceOnUse" x1="74.93" y1="331.1593" x2="66.38" y2="331.1593" gradientTransform="matrix(1 0 0 -1 0 376)">
				<stop  offset="0" style="stop-color:#FFAA8B;stop-opacity:0.7"/>
				<stop  offset="0.1" style="stop-color:#FFAA8B;stop-opacity:0.58"/>
				<stop  offset="0.29" style="stop-color:#FFAA8B;stop-opacity:0.38"/>
				<stop  offset="0.47" style="stop-color:#FFAA8B;stop-opacity:0.21"/>
				<stop  offset="0.63" style="stop-color:#FFAA8B;stop-opacity:0.1"/>
				<stop  offset="0.77" style="stop-color:#FFAA8B;stop-opacity:3.000000e-02"/>
				<stop  offset="0.87" style="stop-color:#FFAA8B;stop-opacity:0"/>
			</linearGradient>
			<path style="fill:url(#SVGID_00000123417493167266654960000018300613176510263702_);" d="M74.6,43.2c-0.1,0.8-0.5,1.6-1.2,2.1
				c-0.6,0.6-1.4,0.9-2.3,1.1c-0.8,0.1-1.7,0-2.5-0.2c-0.8-0.2-1.5-0.6-2.2-1c0.8,0.2,1.5,0.4,2.3,0.6c0.7,0.1,1.5,0.2,2.3,0.1
				C72.6,45.6,73.9,44.6,74.6,43.2z"/>
			<path class="st11" d="M65.8,44.2c-0.3-0.5-0.2-1.2,0.1-1.7c0.2-0.5,0.5-1,0.9-1.5c0.8-0.9,1.9-1.6,3.1-1.7
				c1.2-0.2,2.5,0.1,3.4,0.9c0.5,0.4,0.8,0.9,1.1,1.4c0.1,0.3,0.3,0.5,0.3,0.8c0,0.3,0,0.6-0.1,0.8c0.1-0.3,0.1-0.6,0-0.8
				c-0.1-0.3-0.2-0.5-0.4-0.7c-0.3-0.4-0.7-0.8-1.2-1.1c-0.9-0.6-2-0.8-3-0.6c-1.1,0.2-2.1,0.7-2.8,1.4c-0.4,0.4-0.7,0.8-1.1,1.3
				C65.8,43.1,65.6,43.7,65.8,44.2z"/>
		</g>
	</g>
</g>
</svg>
