<svg xmlns="http://www.w3.org/2000/svg" xmlns:xlink="http://www.w3.org/1999/xlink" viewBox="0 0 54.4 77.35"><defs><style>.cls-1{fill:none;}.cls-2{isolation:isolate;}.cls-3{fill:#dcf5f9;}.cls-4{fill:#ffb495;mix-blend-mode:multiply;opacity:0.3;}.cls-5{fill:#f5c4b3;}.cls-6{fill:url(#linear-gradient);}.cls-7{fill:#3f0f1b;}.cls-8{fill:#561326;}.cls-9{fill:url(#linear-gradient-2);}.cls-10{fill:#832621;}.cls-11{clip-path:url(#clip-path);}.cls-12{fill:#d14a4a;}.cls-13{fill:#fff;}.cls-14{fill:url(#linear-gradient-3);}.cls-15{fill:url(#linear-gradient-4);}.cls-16{fill:url(#linear-gradient-5);}.cls-17{fill:url(#linear-gradient-6);}.cls-18{fill:url(#linear-gradient-7);}.cls-19{fill:url(#linear-gradient-8);}.cls-20{fill:url(#linear-gradient-9);}</style><linearGradient id="linear-gradient" x1="47.11" y1="46.41" x2="54.4" y2="46.41" gradientUnits="userSpaceOnUse"><stop offset="0" stop-color="#ffaa8b"/><stop offset="1" stop-color="#ffaa8b" stop-opacity="0"/></linearGradient><linearGradient id="linear-gradient-2" x1="0.36" y1="46.17" x2="7.66" y2="46.17" gradientUnits="userSpaceOnUse"><stop offset="0" stop-color="#ffaa8b" stop-opacity="0"/><stop offset="1" stop-color="#ffaa8b"/></linearGradient><clipPath id="clip-path"><path class="cls-1" d="M36.59,56.53c-.32-.35-4.24-.55-9.29-.55s-9,.2-9.28.55,1.87,8.2,9.28,8.2S36.94,56.76,36.59,56.53Z"/></clipPath><linearGradient id="linear-gradient-3" x1="26.98" y1="51.48" x2="26.98" y2="35.73" gradientUnits="userSpaceOnUse"><stop offset="0" stop-color="#ffaa8b" stop-opacity="0.7"/><stop offset="0.1" stop-color="#ffaa8b" stop-opacity="0.58"/><stop offset="0.29" stop-color="#ffaa8b" stop-opacity="0.38"/><stop offset="0.47" stop-color="#ffaa8b" stop-opacity="0.21"/><stop offset="0.63" stop-color="#ffaa8b" stop-opacity="0.1"/><stop offset="0.77" stop-color="#ffaa8b" stop-opacity="0.03"/><stop offset="0.87" stop-color="#ffaa8b" stop-opacity="0"/></linearGradient><linearGradient id="linear-gradient-4" x1="754.6" y1="42.87" x2="749.18" y2="42.87" gradientTransform="translate(-735.88)" gradientUnits="userSpaceOnUse"><stop offset="0" stop-color="#248157"/><stop offset="1" stop-color="#24816a" stop-opacity="0"/></linearGradient><linearGradient id="linear-gradient-5" x1="753.39" y1="42.87" x2="750.39" y2="42.87" xlink:href="#linear-gradient-4"/><linearGradient id="linear-gradient-6" x1="11.03" y1="44.84" x2="19.58" y2="44.84" xlink:href="#linear-gradient-3"/><linearGradient id="linear-gradient-7" x1="-634.64" y1="42.87" x2="-640.07" y2="42.87" gradientTransform="matrix(-1, 0, 0, 1, -598.76, 0)" xlink:href="#linear-gradient-4"/><linearGradient id="linear-gradient-8" x1="-635.85" y1="42.87" x2="-638.85" y2="42.87" gradientTransform="matrix(-1, 0, 0, 1, -598.76, 0)" xlink:href="#linear-gradient-4"/><linearGradient id="linear-gradient-9" x1="43.57" y1="44.84" x2="35.03" y2="44.84" xlink:href="#linear-gradient-3"/></defs><g class="cls-2"><g id="Layer_2" data-name="Layer 2"><g id="Layer_1-2" data-name="Layer 1"><path class="cls-3" d="M42.65,77.09v.26A1.11,1.11,0,0,0,42.65,77.09Z"/><path class="cls-4" d="M16.59,67.11s4.37,5,10.39,5,11.19-4.34,11.19-4.34l-11.49-.66Z"/><path class="cls-5" d="M54,48.08c-.63,2-5.16,6.44-6.84,3.3L48.19,41h0a5.12,5.12,0,0,1,3.53-.55,2.25,2.25,0,0,1,.51.2C54.79,41.93,54.68,45.8,54,48.08Z"/><path class="cls-6" d="M54,48.08c-.63,2-5.16,6.44-6.84,3.3L48.19,41h0a5.12,5.12,0,0,1,3.53-.55,2.25,2.25,0,0,1,.51.2C54.79,41.93,54.68,45.8,54,48.08Z"/><path class="cls-5" d="M5.8,33.31S7.51,50.72,8,54.55s4.49,15.57,20.05,15.17c11.22-.53,18.34-3.83,19.53-19.79S48.8,29.49,48.8,29.49L45.24,18.67l-3.56-5L28.75,12.34l-11.21.13-7.39.79L8.7,17.88Z"/><path class="cls-7" d="M51.75,40.47a5.12,5.12,0,0,0-3.53.55l0-7.2A9,9,0,0,0,47,29.42L42.65,21.7a14.09,14.09,0,0,0,3-3.67,15.65,15.65,0,0,0,2-6.48,55.47,55.47,0,0,1,6.66,8C54.76,21,52.89,36.29,51.75,40.47Z"/><path class="cls-7" d="M47.68,11.55a15.65,15.65,0,0,1-2,6.48,14.09,14.09,0,0,1-3,3.67h0l-.2-.36h0l-.55-.08-4.72-.66-1-.14c-3.4-.46-8-1.07-13.46-1.77-.68.75-1.33,1.41-1.95,2h0c-.23.21-.44.41-.66.6C14.74,26,11.26,24.82,7.86,24.46c-.31,3-1.18,15.07-1.27,16.44l0-.1a4.73,4.73,0,0,0-4.06-.37l-.37.22C1.78,38.17-.17,24.62,0,23.76A24.17,24.17,0,0,1,4.4,15.18c-1.73.78-2.13.37-2.13.37s.88-.43,3.8-3.94a21,21,0,0,1,13.12-7.4A21.77,21.77,0,0,1,25,4.37c6.42.85,14.68,3.32,18.1,4.31a12.09,12.09,0,0,1,4.49,2.76Z"/><path class="cls-7" d="M6.59,40.9l0,.13c-1.9-1.46-4.37,0-4.37,0l-.06-.38.37-.22a4.73,4.73,0,0,1,4.06.37Z"/><path class="cls-7" d="M20.55,10.67s-4.63,6.22,1.91,11.79c1.66,1.41,4.2,2,6.29,2.25a21.06,21.06,0,0,0,8.65-.58c7.65-2.23,11.89-11,9.68-18.58a13.05,13.05,0,0,0-1.44-3.1c-.4,1.67-.59,2.76-1.87,4.09.41-1.19.57-4.88-.42-6.54A14.26,14.26,0,0,1,32.47,5.28c1.07-.71,1.4-2.87,1.35-4.16-.48,1.12-7.11,3-8.85,3.25Z"/><path class="cls-8" d="M47.68,11.55a15.65,15.65,0,0,1-2,6.48,14.09,14.09,0,0,1-3,3.67h0A13.87,13.87,0,0,1,40.89,23a14.7,14.7,0,0,1-6.54,2.07,21.71,21.71,0,0,1-3.42,0c-.57-.06-1.13-.15-1.69-.22s-1.11-.21-1.66-.33c.56,0,1.12.06,1.68.11s1.12,0,1.68,0a21.67,21.67,0,0,0,3.33-.23,16.16,16.16,0,0,0,6.18-2.15,12.12,12.12,0,0,0,1.45-1,15.17,15.17,0,0,0,3.2-3.57,16.83,16.83,0,0,0,1.55-2.94A16.5,16.5,0,0,0,47.3,13C47.45,12.51,47.57,12,47.68,11.55Z"/><path class="cls-8" d="M41.11,14.48a16,16,0,0,1-2.38,4.35,16.08,16.08,0,0,1-3.6,3.48,11.88,11.88,0,0,1-4.64,1.93,11.67,11.67,0,0,1-5-.21h1.24A4.91,4.91,0,0,0,28,24l1.2-.12,1.17-.27a13.41,13.41,0,0,0,4.31-2,19.71,19.71,0,0,0,3.57-3.2A27.66,27.66,0,0,0,41.11,14.48Z"/><path class="cls-8" d="M16.62,13.83a10.1,10.1,0,0,0,.66,4.26,5.87,5.87,0,0,0,1.14,1.75,11.91,11.91,0,0,0,1.67,1.45,5.1,5.1,0,0,1-3-1.82,5.71,5.71,0,0,1-.6-1,5.42,5.42,0,0,1-.44-2.34A5.14,5.14,0,0,1,16.62,13.83Z"/><path class="cls-8" d="M20,11.86a9.14,9.14,0,0,0-.79,4.51,7.7,7.7,0,0,0,.53,2.19c.11.37.32.7.47,1.07s.39.68.56,1.06a10.05,10.05,0,0,1-.9-.83,6.69,6.69,0,0,1-.72-1A5.78,5.78,0,0,1,18.66,14,5.25,5.25,0,0,1,20,11.86Z"/><path class="cls-5" d="M6.57,40.8a4.73,4.73,0,0,0-4.06-.37C0,41.7.09,45.57.82,47.85c.62,1.95,5.16,6.44,6.84,3.3"/><path class="cls-9" d="M7.66,51.15C6,54.29,1.44,49.8.82,47.85c-.7-2.17-.83-5.76,1.32-7.2l.37-.22a4.73,4.73,0,0,1,4.06.37l0,.1Z"/><path class="cls-7" d="M21.28,34.83s.13-2.77-1.25-2.9-10-1.72-10.16,5.27C11.65,35.55,14.36,33.84,21.28,34.83Z"/><path class="cls-7" d="M33.32,34.83s-.13-2.77,1.25-2.9,10-1.72,10.16,5.27C43,35.55,40.25,33.84,33.32,34.83Z"/><path class="cls-10" d="M36.59,56.53c-.32-.35-4.24-.55-9.29-.55s-9,.2-9.28.55,1.87,8.2,9.28,8.2S36.94,56.76,36.59,56.53Z"/><g class="cls-11"><path class="cls-12" d="M35.36,62c-2,3.16-5,6.17-8.32,6-3.57-.13-6.2-3-7.79-5.73C22,59.83,29.41,57.06,35.36,62Z"/><path class="cls-13" d="M34.3,54.48c0,2.22-.56,2.22-.56,2.22-2.07,1-10,2-13,0-.32-.21-.38-1.26-.44-2a.78.78,0,0,1,.47-.2C25.73,54.23,32.05,53.77,34.3,54.48Z"/></g><path class="cls-14" d="M28,36.22H25.68c.38,7.43-2.77,11.65-2,13.29a3.7,3.7,0,0,0,6.54,0C31.05,47.87,28,45.71,28,36.22Z"/><path class="cls-13" d="M20.21,43.07c-1.35-3-6-5.63-8.81-.9a1.15,1.15,0,0,0,0,1.2c.8,1.26,3.14,3.78,8.17,1.32A1.24,1.24,0,0,0,20.21,43.07Z"/><path class="cls-15" d="M18.67,42.33a2.72,2.72,0,1,1-2.13-2.13A2.72,2.72,0,0,1,18.67,42.33Z"/><path class="cls-16" d="M17.49,42.63a1.51,1.51,0,0,1-1.72,1.72,1.53,1.53,0,0,1-1.25-1.25,1.5,1.5,0,0,1,3-.47Z"/><path class="cls-13" d="M17,42.89a.5.5,0,0,0,.5.5.5.5,0,1,0,0-1A.5.5,0,0,0,17,42.89Z"/><path class="cls-13" d="M14.54,41.66a1,1,0,1,0,.72-.72A1,1,0,0,0,14.54,41.66Z"/><path class="cls-17" d="M11.34,43.22a4.66,4.66,0,0,0,3.54,2.56,7.17,7.17,0,0,0,2.26-.06,19.72,19.72,0,0,0,2.3-.56,7.51,7.51,0,0,1-2.19,1.05,5.85,5.85,0,0,1-2.47.2,4.23,4.23,0,0,1-2.27-1.06A3.63,3.63,0,0,1,11.34,43.22Z"/><path class="cls-7" d="M20.12,44.21a1.52,1.52,0,0,0-.29-1.55,11.13,11.13,0,0,0-1-1.29A5,5,0,0,0,16,40a4.09,4.09,0,0,0-3,.6,5.31,5.31,0,0,0-1.18,1.14,2.5,2.5,0,0,0-.43.71,1.35,1.35,0,0,0,0,.82,1.37,1.37,0,0,1-.13-.85,3.21,3.21,0,0,1,.33-.81,4.56,4.56,0,0,1,1.1-1.38,4.21,4.21,0,0,1,3.42-.86,4.78,4.78,0,0,1,3.07,1.73A6.41,6.41,0,0,1,20,42.54,1.6,1.6,0,0,1,20.12,44.21Z"/><path class="cls-13" d="M34.39,43.07c1.35-3,6-5.63,8.81-.9a1.15,1.15,0,0,1,0,1.2c-.8,1.26-3.13,3.78-8.17,1.32A1.25,1.25,0,0,1,34.39,43.07Z"/><path class="cls-18" d="M35.93,42.33a2.72,2.72,0,1,0,2.14-2.13A2.73,2.73,0,0,0,35.93,42.33Z"/><path class="cls-19" d="M37.11,42.63a1.5,1.5,0,1,0,1.25-1.25A1.53,1.53,0,0,0,37.11,42.63Z"/><path class="cls-13" d="M37.63,42.89a.5.5,0,0,1-.5.5.5.5,0,0,1,0-1A.5.5,0,0,1,37.63,42.89Z"/><path class="cls-13" d="M40.07,41.66a1,1,0,1,1-.72-.72A1,1,0,0,1,40.07,41.66Z"/><path class="cls-20" d="M43.26,43.22a3.58,3.58,0,0,1-1.17,2.13,4.2,4.2,0,0,1-2.27,1.06,5.87,5.87,0,0,1-2.47-.2,7.63,7.63,0,0,1-2.19-1.05,20.22,20.22,0,0,0,2.3.56,7.22,7.22,0,0,0,2.27.06A4.66,4.66,0,0,0,43.26,43.22Z"/><path class="cls-7" d="M34.48,44.21a1.6,1.6,0,0,1,.08-1.67,6.77,6.77,0,0,1,.91-1.49,4.78,4.78,0,0,1,3.07-1.73,4.21,4.21,0,0,1,3.42.86,4.56,4.56,0,0,1,1.1,1.38,3.65,3.65,0,0,1,.34.81,1.45,1.45,0,0,1-.14.85,1.35,1.35,0,0,0,0-.82,2.37,2.37,0,0,0-.43-.71,5.49,5.49,0,0,0-1.17-1.14,4.1,4.1,0,0,0-3-.6,4.9,4.9,0,0,0-2.81,1.42,10.25,10.25,0,0,0-1.06,1.29A1.55,1.55,0,0,0,34.48,44.21Z"/></g></g></g></svg>