<svg xmlns="http://www.w3.org/2000/svg" xmlns:xlink="http://www.w3.org/1999/xlink" viewBox="0 0 54.36 69.68"><defs><style>.cls-1{fill:none;}.cls-2{fill:#f5c4b3;}.cls-3{fill:url(#linear-gradient);}.cls-4{fill:#3f0f1b;}.cls-5{fill:#561326;}.cls-6{fill:url(#linear-gradient-2);}.cls-7{fill:url(#linear-gradient-3);}.cls-8{fill:#fff;}.cls-9{fill:url(#linear-gradient-4);}.cls-10{fill:url(#linear-gradient-5);}.cls-11{fill:url(#linear-gradient-6);}.cls-12{fill:url(#linear-gradient-7);}.cls-13{fill:url(#linear-gradient-8);}.cls-14{fill:url(#linear-gradient-9);}.cls-15{fill:#832621;}.cls-16{clip-path:url(#clip-path);}.cls-17{fill:#f99273;opacity:0.3;}</style><linearGradient id="linear-gradient" x1="47.07" y1="46.37" x2="54.36" y2="46.37" gradientUnits="userSpaceOnUse"><stop offset="0" stop-color="#ffaa8b"/><stop offset="1" stop-color="#ffaa8b" stop-opacity="0"/></linearGradient><linearGradient id="linear-gradient-2" x1="0.36" y1="46.14" x2="7.66" y2="46.14" gradientUnits="userSpaceOnUse"><stop offset="0" stop-color="#ffaa8b" stop-opacity="0"/><stop offset="1" stop-color="#ffaa8b"/></linearGradient><linearGradient id="linear-gradient-3" x1="26.97" y1="51.44" x2="26.97" y2="35.7" gradientUnits="userSpaceOnUse"><stop offset="0" stop-color="#ffaa8b" stop-opacity="0.7"/><stop offset="0.1" stop-color="#ffaa8b" stop-opacity="0.58"/><stop offset="0.29" stop-color="#ffaa8b" stop-opacity="0.38"/><stop offset="0.47" stop-color="#ffaa8b" stop-opacity="0.21"/><stop offset="0.63" stop-color="#ffaa8b" stop-opacity="0.1"/><stop offset="0.77" stop-color="#ffaa8b" stop-opacity="0.03"/><stop offset="0.87" stop-color="#ffaa8b" stop-opacity="0"/></linearGradient><linearGradient id="linear-gradient-4" x1="754.59" y1="42.83" x2="749.17" y2="42.83" gradientTransform="translate(-735.88)" gradientUnits="userSpaceOnUse"><stop offset="0" stop-color="#248157"/><stop offset="1" stop-color="#24816a" stop-opacity="0"/></linearGradient><linearGradient id="linear-gradient-5" x1="753.38" y1="42.83" x2="750.38" y2="42.83" xlink:href="#linear-gradient-4"/><linearGradient id="linear-gradient-6" x1="11.02" y1="44.81" x2="19.56" y2="44.81" xlink:href="#linear-gradient-3"/><linearGradient id="linear-gradient-7" x1="-786.33" y1="42.83" x2="-791.75" y2="42.83" gradientTransform="matrix(-1, 0, 0, 1, -750.47, 0)" xlink:href="#linear-gradient-4"/><linearGradient id="linear-gradient-8" x1="-787.54" y1="42.83" x2="-790.54" y2="42.83" gradientTransform="matrix(-1, 0, 0, 1, -750.47, 0)" xlink:href="#linear-gradient-4"/><linearGradient id="linear-gradient-9" x1="43.54" y1="44.81" x2="35" y2="44.81" xlink:href="#linear-gradient-3"/><clipPath id="clip-path"><path class="cls-1" d="M36.09,56.92c-.29-.32-3.89-.5-8.53-.5s-8.24.18-8.53.5-.83,5.26,8.53,5.26S36.41,57.13,36.09,56.92Z"/></clipPath></defs><g id="Layer_2" data-name="Layer 2"><g id="Layer_1-2" data-name="Layer 1"><path class="cls-2" d="M53.91,48c-.63,2-5.16,6.44-6.84,3.31L48.16,41h0a5.13,5.13,0,0,1,3.53-.55,2.25,2.25,0,0,1,.51.2C54.75,41.9,54.64,45.77,53.91,48Z"/><path class="cls-3" d="M53.91,48c-.63,2-5.16,6.44-6.84,3.31L48.16,41h0a5.13,5.13,0,0,1,3.53-.55,2.25,2.25,0,0,1,.51.2C54.75,41.9,54.64,45.77,53.91,48Z"/><path class="cls-2" d="M5.79,33.29S7.51,50.69,8,54.51s4.48,15.55,20,15.16c11.21-.53,18.33-3.82,19.51-19.77s1.19-20.44,1.19-20.44L45.21,18.65l-3.56-5L28.73,12.33l-11.2.13-7.39.79L8.69,17.86Z"/><path class="cls-4" d="M51.71,40.44a5.13,5.13,0,0,0-3.53.55l0-7.19A9,9,0,0,0,47,29.39l-4.35-7.71a14.12,14.12,0,0,0,3-3.67,15.56,15.56,0,0,0,2-6.47,56,56,0,0,1,6.65,8C54.72,21,52.85,36.26,51.71,40.44Z"/><path class="cls-4" d="M47.65,11.54a15.56,15.56,0,0,1-2,6.47,14.12,14.12,0,0,1-3,3.67h0l-.2-.35h0l-.55-.08c-.8-.12-2.42-.35-4.72-.66l-1-.14c-3.39-.46-8-1.08-13.45-1.77-.67.75-1.32,1.41-1.94,2h0c-.22.22-.44.42-.66.61C14.73,26,11.25,24.81,7.85,24.44c-.31,3-1.17,15.06-1.27,16.43v-.1A4.76,4.76,0,0,0,2.5,40.4l-.36.22C1.78,38.14-.17,24.6,0,23.74A24.24,24.24,0,0,1,4.4,15.17c-1.73.78-2.13.37-2.13.37s.88-.43,3.8-3.94A21,21,0,0,1,19.18,4.21,21.28,21.28,0,0,1,25,4.37c6.42.84,14.67,3.31,18.08,4.3a12.07,12.07,0,0,1,4.49,2.76Z"/><path class="cls-4" d="M6.58,40.87V41C4.66,39.55,2.2,41,2.2,41l-.06-.38.36-.22a4.76,4.76,0,0,1,4.07.37Z"/><path class="cls-4" d="M20.54,10.67s-4.63,6.21,1.91,11.77c1.65,1.42,4.19,2,6.28,2.25a20.84,20.84,0,0,0,8.64-.58C45,21.88,49.25,13.08,47,5.55a13.43,13.43,0,0,0-1.43-3.1,7.43,7.43,0,0,1-1.87,4.09c.4-1.19.57-4.88-.42-6.54A14.25,14.25,0,0,1,32.45,5.28c1.07-.71,1.39-2.88,1.34-4.16-.47,1.12-7.1,3-8.84,3.25Z"/><path class="cls-5" d="M47.65,11.54a15.56,15.56,0,0,1-2,6.47,14.12,14.12,0,0,1-3,3.67h0A13,13,0,0,1,40.86,23,14.84,14.84,0,0,1,34.32,25a21.57,21.57,0,0,1-3.41,0c-.57-.06-1.13-.15-1.69-.22s-1.11-.21-1.66-.33l1.68.11c.56,0,1.12,0,1.68,0a23.1,23.1,0,0,0,3.33-.24,16,16,0,0,0,6.17-2.15,12,12,0,0,0,1.45-1,15.59,15.59,0,0,0,3.2-3.57,16.52,16.52,0,0,0,1.54-2.95A15.65,15.65,0,0,0,47.27,13C47.41,12.5,47.54,12,47.65,11.54Z"/><path class="cls-5" d="M41.08,14.47a15.84,15.84,0,0,1-2.38,4.34,15.82,15.82,0,0,1-3.59,3.48,12,12,0,0,1-4.64,1.93,11.36,11.36,0,0,1-5-.21h1.24A4.91,4.91,0,0,0,28,24l1.2-.12,1.17-.27a13.15,13.15,0,0,0,4.3-2,19.34,19.34,0,0,0,3.57-3.2A27.36,27.36,0,0,0,41.08,14.47Z"/><path class="cls-5" d="M16.6,13.82a10.27,10.27,0,0,0,.67,4.26,5.52,5.52,0,0,0,1.14,1.74,11.2,11.2,0,0,0,1.66,1.45,5.08,5.08,0,0,1-3-1.81,5.85,5.85,0,0,1-.61-1.05,5.76,5.76,0,0,1-.44-2.34A5.44,5.44,0,0,1,16.6,13.82Z"/><path class="cls-5" d="M20,11.86a9.19,9.19,0,0,0-.8,4.5,7.7,7.7,0,0,0,.53,2.19c.12.37.32.7.47,1.06s.39.69.57,1.06a7,7,0,0,1-.9-.83,6,6,0,0,1-.72-1,5.72,5.72,0,0,1-.78-2.39,5.85,5.85,0,0,1,.31-2.5A5.22,5.22,0,0,1,20,11.86Z"/><path class="cls-2" d="M6.57,40.77A4.76,4.76,0,0,0,2.5,40.4C0,41.67.09,45.53.82,47.81c.62,1.95,5.16,6.44,6.84,3.3"/><path class="cls-6" d="M7.66,51.11C6,54.25,1.44,49.76.82,47.81c-.7-2.16-.83-5.75,1.32-7.19l.36-.22a4.76,4.76,0,0,1,4.07.37v.1Z"/><path class="cls-4" d="M21.27,34.8S21.4,32,20,31.9s-10-1.71-10.15,5.28C11.64,35.53,14.34,33.81,21.27,34.8Z"/><path class="cls-4" d="M33.3,34.8s-.13-2.77,1.25-2.9,10-1.71,10.15,5.28C42.92,35.53,40.22,33.81,33.3,34.8Z"/><path class="cls-7" d="M27.94,36.19H25.66c.38,7.43-2.76,11.64-2,13.28a3.69,3.69,0,0,0,6.53,0C31,47.83,27.94,45.67,27.94,36.19Z"/><path class="cls-8" d="M20.2,43c-1.35-3-6-5.63-8.8-.9a1.15,1.15,0,0,0,0,1.2c.8,1.26,3.14,3.78,8.17,1.32A1.26,1.26,0,0,0,20.2,43Z"/><path class="cls-9" d="M18.65,42.3a2.71,2.71,0,1,1-2.12-2.13A2.71,2.71,0,0,1,18.65,42.3Z"/><path class="cls-10" d="M17.48,42.6a1.51,1.51,0,0,1-1.72,1.72,1.53,1.53,0,0,1-1.25-1.25,1.51,1.51,0,0,1,1.72-1.72A1.53,1.53,0,0,1,17.48,42.6Z"/><path class="cls-8" d="M17,42.86a.51.51,0,0,0,.5.5.5.5,0,0,0,.5-.5.5.5,0,0,0-.5-.5A.5.5,0,0,0,17,42.86Z"/><path class="cls-8" d="M14.52,41.63a1,1,0,0,0,1.22,1.22,1,1,0,0,0,.73-.72,1,1,0,0,0-1.22-1.22A1,1,0,0,0,14.52,41.63Z"/><path class="cls-11" d="M11.33,43.19a4.68,4.68,0,0,0,3.54,2.56,7.48,7.48,0,0,0,2.26-.06,21.8,21.8,0,0,0,2.29-.56,7.55,7.55,0,0,1-2.18,1,5.87,5.87,0,0,1-2.47.21,4.38,4.38,0,0,1-2.27-1.06A3.63,3.63,0,0,1,11.33,43.19Z"/><path class="cls-4" d="M20.11,44.18a1.54,1.54,0,0,0-.29-1.55,10.25,10.25,0,0,0-1.06-1.29A4.83,4.83,0,0,0,16,39.93a4,4,0,0,0-3,.6,5.26,5.26,0,0,0-1.18,1.13,2.45,2.45,0,0,0-.43.7,1.56,1.56,0,0,0,0,.83,1.46,1.46,0,0,1-.13-.85,3.62,3.62,0,0,1,.33-.81,4.56,4.56,0,0,1,1.1-1.38,4.21,4.21,0,0,1,3.42-.86A4.78,4.78,0,0,1,19.12,41,7.17,7.17,0,0,1,20,42.51,1.62,1.62,0,0,1,20.11,44.18Z"/><path class="cls-8" d="M34.37,43c1.35-3,6-5.63,8.8-.9a1.15,1.15,0,0,1,0,1.2C42.35,44.6,40,47.12,35,44.66A1.25,1.25,0,0,1,34.37,43Z"/><path class="cls-12" d="M35.91,42.3A2.71,2.71,0,1,0,38,40.17,2.71,2.71,0,0,0,35.91,42.3Z"/><path class="cls-13" d="M37.09,42.6a1.5,1.5,0,0,0,1.72,1.72,1.5,1.5,0,1,0-1.72-1.72Z"/><path class="cls-8" d="M37.6,42.86a.51.51,0,0,1-.5.5.5.5,0,0,1-.5-.5.5.5,0,0,1,.5-.5A.5.5,0,0,1,37.6,42.86Z"/><path class="cls-8" d="M40,41.63a1,1,0,0,1-1.22,1.22,1,1,0,0,1-.72-.72,1,1,0,0,1,1.94-.5Z"/><path class="cls-14" d="M43.23,43.19a3.58,3.58,0,0,1-1.17,2.13,4.35,4.35,0,0,1-2.27,1.06,5.87,5.87,0,0,1-2.47-.21,7.55,7.55,0,0,1-2.18-1,22.42,22.42,0,0,0,2.29.56,7.54,7.54,0,0,0,2.27.06A4.68,4.68,0,0,0,43.23,43.19Z"/><path class="cls-4" d="M34.45,44.18a1.62,1.62,0,0,1,.09-1.67,6.72,6.72,0,0,1,.9-1.49,4.81,4.81,0,0,1,3.08-1.73,4.2,4.2,0,0,1,3.41.86A4.56,4.56,0,0,1,43,41.53a3.65,3.65,0,0,1,.34.81,1.47,1.47,0,0,1-.14.85,1.39,1.39,0,0,0,0-.83,2.45,2.45,0,0,0-.43-.7,5.21,5.21,0,0,0-1.17-1.13,4,4,0,0,0-3-.6,4.85,4.85,0,0,0-2.81,1.41,9.38,9.38,0,0,0-1,1.29A1.54,1.54,0,0,0,34.45,44.18Z"/><path class="cls-15" d="M36.09,56.92c-.29-.32-3.89-.5-8.53-.5s-8.24.18-8.53.5-.83,5.26,8.53,5.26S36.41,57.13,36.09,56.92Z"/><g class="cls-16"><path class="cls-8" d="M36.3,55.39c-.07,2.61-.72,3.09-.72,3.09-1.39.63-4.8.59-8.31.7-3.27.1-5.8.42-7.66-.7-.41-.25-.48-2-.56-2.79a1.11,1.11,0,0,1,.61-.24C26.05,55.1,33.4,54.56,36.3,55.39Z"/><path class="cls-8" d="M18.24,63c.07-2.61.85-2.89.85-2.89.36-.13.46-.61,1.22-.62,2.19-.05,4.56,0,7-.06s5.28-.19,7.38-.24a1.87,1.87,0,0,1,1.5.87c.26.41.07,1.81.15,2.65a1.08,1.08,0,0,1-.6.24C29.31,63.33,20.94,63.82,18.24,63Z"/></g><path class="cls-17" d="M30.68,64.1a9.66,9.66,0,0,1-5.53.17c-2.74-.86-.78.48,1.43.87S31.38,64.6,32,64,31.62,63.84,30.68,64.1Z"/></g></g></svg>