<svg xmlns="http://www.w3.org/2000/svg" xmlns:xlink="http://www.w3.org/1999/xlink" viewBox="0 0 54.36 69.68"><defs><style>.cls-1{fill:#f5c4b3;}.cls-2{fill:url(#linear-gradient);}.cls-3{fill:#3f0f1b;}.cls-4{fill:#561326;}.cls-5{fill:url(#linear-gradient-2);}.cls-6{fill:url(#linear-gradient-3);}.cls-7{fill:#9b1f1f;}.cls-8{fill:#d64747;}.cls-9{fill:#fefefe;}.cls-10{opacity:0.26;}.cls-11{fill:url(#linear-gradient-4);}.cls-12{fill:#fff;}.cls-13{fill:url(#linear-gradient-5);}.cls-14{opacity:0.45;}.cls-15{fill:url(#linear-gradient-6);}.cls-16{fill:url(#linear-gradient-7);}.cls-17{fill:url(#linear-gradient-8);}</style><linearGradient id="linear-gradient" x1="47.07" y1="46.37" x2="54.36" y2="46.37" gradientUnits="userSpaceOnUse"><stop offset="0" stop-color="#ffaa8b"/><stop offset="1" stop-color="#ffaa8b" stop-opacity="0"/></linearGradient><linearGradient id="linear-gradient-2" x1="0.36" y1="46.14" x2="7.66" y2="46.14" gradientUnits="userSpaceOnUse"><stop offset="0" stop-color="#ffaa8b" stop-opacity="0"/><stop offset="1" stop-color="#ffaa8b"/></linearGradient><linearGradient id="linear-gradient-3" x1="26.97" y1="51.44" x2="26.97" y2="35.7" gradientUnits="userSpaceOnUse"><stop offset="0" stop-color="#ffaa8b" stop-opacity="0.7"/><stop offset="0.1" stop-color="#ffaa8b" stop-opacity="0.58"/><stop offset="0.29" stop-color="#ffaa8b" stop-opacity="0.38"/><stop offset="0.47" stop-color="#ffaa8b" stop-opacity="0.21"/><stop offset="0.63" stop-color="#ffaa8b" stop-opacity="0.1"/><stop offset="0.77" stop-color="#ffaa8b" stop-opacity="0.03"/><stop offset="0.87" stop-color="#ffaa8b" stop-opacity="0"/></linearGradient><linearGradient id="linear-gradient-4" x1="-596.86" y1="-25.24" x2="-592.83" y2="-25.24" gradientTransform="matrix(0.93, 0.36, -0.36, 0.93, 589.54, 278.81)" gradientUnits="userSpaceOnUse"><stop offset="0" stop-color="#fff"/><stop offset="1" stop-color="#00aeef"/></linearGradient><linearGradient id="linear-gradient-5" x1="-1152.44" y1="186.06" x2="-1148.4" y2="186.06" gradientTransform="matrix(-0.93, 0.36, 0.36, 0.93, -1130.03, 278.81)" xlink:href="#linear-gradient-4"/><linearGradient id="linear-gradient-6" x1="-530.6" y1="0.3" x2="-527.79" y2="0.3" gradientTransform="matrix(-0.57, -0.21, -0.34, 0.94, -295.01, -61.28)" gradientUnits="userSpaceOnUse"><stop offset="0" stop-color="#c1ebfb"/><stop offset="1" stop-color="#00c3ff"/></linearGradient><linearGradient id="linear-gradient-7" x1="-1443.32" y1="1285.09" x2="-1441.17" y2="1285.09" gradientTransform="matrix(0.01, 0.61, 1, -0.02, -1256.5, 961.99)" xlink:href="#linear-gradient-6"/><linearGradient id="linear-gradient-8" x1="-1454.17" y1="1318.92" x2="-1452.01" y2="1318.92" gradientTransform="matrix(0.01, 0.61, 1, -0.02, -1256.5, 961.99)" xlink:href="#linear-gradient-6"/></defs><g id="Layer_2" data-name="Layer 2"><g id="Layer_1-2" data-name="Layer 1"><path class="cls-1" d="M53.91,48c-.63,2-5.16,6.44-6.84,3.31L48.16,41h0a5.13,5.13,0,0,1,3.53-.55,2.25,2.25,0,0,1,.51.2C54.75,41.9,54.64,45.77,53.91,48Z"/><path class="cls-2" d="M53.91,48c-.63,2-5.16,6.44-6.84,3.31L48.16,41h0a5.13,5.13,0,0,1,3.53-.55,2.25,2.25,0,0,1,.51.2C54.75,41.9,54.64,45.77,53.91,48Z"/><path class="cls-1" d="M5.79,33.29S7.51,50.69,8,54.51s4.48,15.55,20,15.16c11.21-.53,18.33-3.82,19.51-19.77s1.19-20.44,1.19-20.44L45.21,18.65l-3.56-5L28.73,12.33l-11.2.13-7.39.79L8.69,17.86Z"/><path class="cls-3" d="M51.71,40.44a5.13,5.13,0,0,0-3.53.55l0-7.19A9,9,0,0,0,47,29.39l-4.35-7.71a14.12,14.12,0,0,0,3-3.67,15.56,15.56,0,0,0,2-6.47,56,56,0,0,1,6.65,8C54.72,21,52.85,36.26,51.71,40.44Z"/><path class="cls-3" d="M47.65,11.54a15.56,15.56,0,0,1-2,6.47,14.12,14.12,0,0,1-3,3.67h0l-.2-.35h0l-.55-.08c-.8-.12-2.42-.35-4.72-.66l-1-.14c-3.39-.46-8-1.08-13.45-1.77-.67.75-1.32,1.41-1.94,2h0c-.22.22-.44.42-.66.61C14.73,26,11.25,24.81,7.85,24.44c-.31,3-1.17,15.06-1.27,16.43v-.1A4.76,4.76,0,0,0,2.5,40.4l-.36.22C1.78,38.14-.17,24.6,0,23.74A24.24,24.24,0,0,1,4.4,15.17c-1.73.78-2.13.37-2.13.37s.88-.43,3.8-3.94A21,21,0,0,1,19.18,4.21,21.28,21.28,0,0,1,25,4.37c6.42.84,14.67,3.31,18.08,4.3a12.07,12.07,0,0,1,4.49,2.76Z"/><path class="cls-3" d="M6.58,40.87V41C4.66,39.55,2.2,41,2.2,41l-.06-.38.36-.22a4.76,4.76,0,0,1,4.07.37Z"/><path class="cls-3" d="M20.54,10.67s-4.63,6.21,1.91,11.77c1.65,1.42,4.19,2,6.28,2.25a20.84,20.84,0,0,0,8.64-.58C45,21.88,49.25,13.08,47,5.55a13.43,13.43,0,0,0-1.43-3.1,7.43,7.43,0,0,1-1.87,4.09c.4-1.19.57-4.88-.42-6.54A14.25,14.25,0,0,1,32.45,5.28c1.07-.71,1.39-2.88,1.34-4.16-.47,1.12-7.1,3-8.84,3.25Z"/><path class="cls-4" d="M47.65,11.54a15.56,15.56,0,0,1-2,6.47,14.12,14.12,0,0,1-3,3.67h0A13,13,0,0,1,40.86,23,14.84,14.84,0,0,1,34.32,25a21.69,21.69,0,0,1-3.42,0c-.56-.06-1.12-.15-1.68-.22s-1.11-.21-1.66-.33l1.68.11c.56,0,1.12,0,1.68,0a23.1,23.1,0,0,0,3.33-.24,16,16,0,0,0,6.17-2.15,12,12,0,0,0,1.45-1,15.59,15.59,0,0,0,3.2-3.57,16.52,16.52,0,0,0,1.54-2.95A15.65,15.65,0,0,0,47.27,13C47.41,12.5,47.54,12,47.65,11.54Z"/><path class="cls-4" d="M41.08,14.47a15.84,15.84,0,0,1-2.38,4.34,15.82,15.82,0,0,1-3.59,3.48,12,12,0,0,1-4.64,1.93,11.36,11.36,0,0,1-5-.21h1.24A4.91,4.91,0,0,0,28,24l1.2-.12,1.17-.27a13.15,13.15,0,0,0,4.3-2,19.34,19.34,0,0,0,3.57-3.2A27.36,27.36,0,0,0,41.08,14.47Z"/><path class="cls-4" d="M16.6,13.82a10.27,10.27,0,0,0,.67,4.26,5.52,5.52,0,0,0,1.14,1.74,11.2,11.2,0,0,0,1.66,1.45,5.08,5.08,0,0,1-3-1.81,5.85,5.85,0,0,1-.61-1.05,5.76,5.76,0,0,1-.44-2.34A5.44,5.44,0,0,1,16.6,13.82Z"/><path class="cls-4" d="M20,11.86a9.19,9.19,0,0,0-.8,4.5,7.7,7.7,0,0,0,.53,2.19c.12.37.32.7.47,1.06s.39.69.57,1.06a7,7,0,0,1-.9-.83,6,6,0,0,1-.72-1,5.72,5.72,0,0,1-.78-2.39,5.85,5.85,0,0,1,.31-2.5A5.22,5.22,0,0,1,20,11.86Z"/><path class="cls-1" d="M6.57,40.77A4.76,4.76,0,0,0,2.5,40.4C0,41.67.09,45.53.82,47.81c.62,1.95,5.16,6.44,6.84,3.3"/><path class="cls-5" d="M7.66,51.11C6,54.25,1.44,49.76.82,47.81c-.7-2.16-.83-5.75,1.32-7.19l.36-.22a4.76,4.76,0,0,1,4.07.37v.1Z"/><path class="cls-6" d="M27.94,36.19H25.66c.38,7.43-2.76,11.64-2,13.28a3.69,3.69,0,0,0,6.53,0C31,47.83,27.94,45.67,27.94,36.19Z"/><path class="cls-3" d="M22.41,30.44s0,3.18-1.9,3.64-9.78,1.42-10.8,4.31c.56-2.2.76-4.31,2.92-5.29S22.41,30.44,22.41,30.44Z"/><path class="cls-3" d="M31.72,30.44s0,3.18,1.9,3.64,9.78,1.42,10.79,4.31c-.56-2.2-.75-4.31-2.92-5.29S31.72,30.44,31.72,30.44Z"/><path class="cls-7" d="M36.43,62a2,2,0,0,1-1.36.87,4.09,4.09,0,0,1-1.21,0l-.46-.06a47.2,47.2,0,0,0-12.86,0h0a5.2,5.2,0,0,1-1.67,0A2,2,0,0,1,17.5,62c-.62-1.08.14-2.64.82-3.5a8.54,8.54,0,0,1,1.95-1.79,9,9,0,0,1,2-1A13,13,0,0,1,27,55a13,13,0,0,1,4.7.7,9.13,9.13,0,0,1,2.16,1.14,9.46,9.46,0,0,1,1.78,1.68C36.29,59.35,37.05,60.91,36.43,62Z"/><path class="cls-8" d="M33.86,62.87l-.46-.06a47.2,47.2,0,0,0-12.86,0,7.47,7.47,0,0,1,13.32.06Z"/><path class="cls-9" d="M33.83,56.81a25.71,25.71,0,0,1-6.61.75,24.41,24.41,0,0,1-6.95-.86,9,9,0,0,1,2-1A13,13,0,0,1,27,55a13,13,0,0,1,4.7.7A9.13,9.13,0,0,1,33.83,56.81Z"/><g class="cls-10"><path class="cls-11" d="M44.33,43.85c-.44-1.19-2-1.43-3-1.27a.74.74,0,0,0-.62.36c-.31.68.53,1.33.92,1.57a5.57,5.57,0,0,0,1.06.54,1.68,1.68,0,0,0,1,.15,1,1,0,0,0,.77-.67A1.12,1.12,0,0,0,44.33,43.85Z"/></g><g class="cls-10"><path class="cls-12" d="M44.33,43.85a2.25,2.25,0,0,0-2-1.29,2.17,2.17,0,0,1,1.53,1.11.86.86,0,0,1,.08.59.83.83,0,0,1-.71.55,1.8,1.8,0,0,1-.91-.17,6.11,6.11,0,0,1-1-.5,3.91,3.91,0,0,1-.52-.38,2.77,2.77,0,0,0,.81.75,5.57,5.57,0,0,0,1.06.54,1.68,1.68,0,0,0,1,.15,1,1,0,0,0,.77-.67A1.12,1.12,0,0,0,44.33,43.85Z"/></g><path class="cls-12" d="M43.62,44.75a.31.31,0,0,1-.58-.22.31.31,0,0,1,.4-.17A.3.3,0,0,1,43.62,44.75Z"/><path class="cls-12" d="M42.74,44.47a.24.24,0,0,1-.3.14.23.23,0,0,1-.13-.3.24.24,0,0,1,.3-.14A.23.23,0,0,1,42.74,44.47Z"/><path class="cls-3" d="M42.28,41a6.28,6.28,0,0,0-2.82-.79,6.19,6.19,0,0,0-2.46.23,5.81,5.81,0,0,0-2,1.05c-.5.41-1.37,1.16-1.32,1.87,0,.16.17.33.34.27a2,2,0,0,0,.78-.7,8.82,8.82,0,0,1,.67-.7,4.8,4.8,0,0,1,1.76-1,6.49,6.49,0,0,1,2.19-.27c.92,0,1.81.31,2.72.38.2,0,.25-.26.1-.35Z"/><path class="cls-3" d="M41.59,43.06A6.89,6.89,0,0,0,37,42a8.13,8.13,0,0,0-2,.45c-.43.17-1.06.4-1.23.87-.06.18.13.31.28.28a9.8,9.8,0,0,0,1.21-.52,8.28,8.28,0,0,1,1.85-.42,6.94,6.94,0,0,1,4.25.75.23.23,0,0,0,.23-.39Z"/><g class="cls-10"><path class="cls-13" d="M9.6,43.85c.45-1.19,2-1.43,3-1.27a.74.74,0,0,1,.62.36c.31.68-.53,1.33-.92,1.57a5.57,5.57,0,0,1-1.06.54,1.68,1.68,0,0,1-1,.15,1,1,0,0,1-.77-.67A1.12,1.12,0,0,1,9.6,43.85Z"/></g><g class="cls-10"><path class="cls-12" d="M9.6,43.85a2.25,2.25,0,0,1,2-1.29,2.17,2.17,0,0,0-1.53,1.11.86.86,0,0,0-.08.59.83.83,0,0,0,.71.55,1.8,1.8,0,0,0,.91-.17,6.11,6.11,0,0,0,1-.5,3.91,3.91,0,0,0,.52-.38,2.77,2.77,0,0,1-.81.75,5.57,5.57,0,0,1-1.06.54,1.68,1.68,0,0,1-1,.15,1,1,0,0,1-.77-.67A1.12,1.12,0,0,1,9.6,43.85Z"/></g><path class="cls-12" d="M10.31,44.75a.31.31,0,1,0,.58-.22.31.31,0,0,0-.4-.17A.3.3,0,0,0,10.31,44.75Z"/><path class="cls-12" d="M11.19,44.47a.24.24,0,0,0,.3.14.23.23,0,0,0,.13-.3.24.24,0,0,0-.3-.14A.23.23,0,0,0,11.19,44.47Z"/><path class="cls-3" d="M11.75,41.32c.89-.07,1.76-.33,2.66-.37a6.32,6.32,0,0,1,2.25.26,4.94,4.94,0,0,1,1.72,1,8.12,8.12,0,0,1,.71.73,2,2,0,0,0,.78.7c.17.06.33-.11.34-.27.05-.7-.79-1.43-1.29-1.84a5.92,5.92,0,0,0-2-1.08,6.27,6.27,0,0,0-2.4-.24,6.41,6.41,0,0,0-2.88.8c-.15.09-.1.37.1.35Z"/><path class="cls-3" d="M12.57,43.45a7,7,0,0,1,4.25-.75,8.63,8.63,0,0,1,1.81.41,9.76,9.76,0,0,0,1.25.53c.15,0,.34-.1.28-.28-.17-.47-.8-.7-1.23-.87a8.13,8.13,0,0,0-2-.45,6.89,6.89,0,0,0-4.58,1,.23.23,0,0,0,.23.39Z"/><g class="cls-14"><path class="cls-15" d="M8,48.71a.7.7,0,0,1,1,0,.82.82,0,0,1,.29,1,1,1,0,0,1-.52.4.89.89,0,0,1-1.05-.48.76.76,0,0,1,0-.61A1,1,0,0,1,8,48.71Z"/></g><g class="cls-10"><path class="cls-12" d="M8.11,48.79a.61.61,0,0,1,.9,0,.59.59,0,0,0-.73.05.69.69,0,0,0-.21.26.49.49,0,0,0,.14.62,1.08,1.08,0,0,0,.8.15,1.88,1.88,0,0,1-.47.1.84.84,0,0,1-.46-.1.63.63,0,0,1-.2-.78A.93.93,0,0,1,8.11,48.79Z"/></g><path class="cls-12" d="M8,49.13a.29.29,0,0,0,.18.37.28.28,0,0,0,.36-.17A.28.28,0,0,0,8.41,49,.29.29,0,0,0,8,49.13Z"/><path class="cls-12" d="M8.55,49.56a.16.16,0,0,0,.1.21.16.16,0,0,0,.2-.1.16.16,0,1,0-.3-.11Z"/><g class="cls-14"><path class="cls-16" d="M10.87,57.14a.6.6,0,0,1-.3-.29.64.64,0,0,1,0-.43c.1-.28.33-.57.66-.5a.74.74,0,0,1,.43.26.68.68,0,0,1-.05.89.59.59,0,0,1-.44.15A.71.71,0,0,1,10.87,57.14Z"/></g><g class="cls-10"><path class="cls-12" d="M10.91,57.06a.47.47,0,0,1-.24-.65.46.46,0,0,0,.24.51.57.57,0,0,0,.24.08.39.39,0,0,0,.41-.27.9.9,0,0,0-.12-.62,1.49,1.49,0,0,1,.2.31.64.64,0,0,1,.06.36.48.48,0,0,1-.5.36A.82.82,0,0,1,10.91,57.06Z"/></g><path class="cls-12" d="M11.17,57a.22.22,0,0,0,.22-.22.22.22,0,0,0-.23-.22.23.23,0,0,0-.21.23A.21.21,0,0,0,11.17,57Z"/><path class="cls-12" d="M11.34,56.53a.12.12,0,0,0,.12-.12.12.12,0,0,0-.13-.12.12.12,0,0,0-.12.12A.12.12,0,0,0,11.34,56.53Z"/><g class="cls-14"><path class="cls-17" d="M44.57,49.87a.62.62,0,0,1-.3-.3.58.58,0,0,1,0-.43c.1-.28.33-.57.66-.5a.79.79,0,0,1,.44.26.71.71,0,0,1,0,.89.67.67,0,0,1-.45.16A1,1,0,0,1,44.57,49.87Z"/></g><g class="cls-10"><path class="cls-12" d="M44.61,49.79a.47.47,0,0,1-.25-.65.47.47,0,0,0,.24.51.48.48,0,0,0,.24.07.37.37,0,0,0,.41-.27.81.81,0,0,0-.12-.61,1.41,1.41,0,0,1,.21.31.6.6,0,0,1,0,.35.46.46,0,0,1-.5.36A.58.58,0,0,1,44.61,49.79Z"/></g><path class="cls-12" d="M44.87,49.74a.22.22,0,0,0,.21-.23.21.21,0,0,0-.22-.21.22.22,0,0,0-.22.22A.22.22,0,0,0,44.87,49.74Z"/><path class="cls-12" d="M45,49.26a.13.13,0,0,0,.13-.13A.13.13,0,0,0,45,49a.12.12,0,0,0-.12.13A.12.12,0,0,0,45,49.26Z"/></g></g></svg>