<?xml version="1.0" encoding="utf-8"?>
<!-- Generator: Adobe Illustrator 25.4.1, SVG Export Plug-In . SVG Version: 6.00 Build 0)  -->
<svg version="1.1" id="Layer_1" xmlns="http://www.w3.org/2000/svg" xmlns:xlink="http://www.w3.org/1999/xlink" x="0px" y="0px"
	 viewBox="0 0 54.4 69.7" style="enable-background:new 0 0 54.4 69.7;" xml:space="preserve">
<style type="text/css">
	.st0{fill:#F5C4B3;}
	.st1{fill:url(#SVGID_1_);}
	.st2{fill:#3F0F1B;}
	.st3{fill:#561326;}
	.st4{fill:url(#SVGID_00000023273726662575976640000003652973378137279632_);}
	.st5{fill:url(#SVGID_00000167387036423530615930000005216461565961378237_);}
	.st6{fill:#9B1F1F;}
	.st7{fill:#D64747;}
	.st8{fill:#FEFEFE;}
	.st9{fill:#FFFFFF;}
	.st10{fill:url(#SVGID_00000047774109040510069600000006272579834086091911_);}
	.st11{fill:url(#SVGID_00000019644793265728802160000001790680372852620430_);}
	.st12{fill:url(#SVGID_00000060748806432526436510000007137365933682614966_);}
	.st13{fill:url(#SVGID_00000109751561176262397710000015360773250218309518_);}
	.st14{fill:url(#SVGID_00000087381483156661886990000000798206540407713185_);}
	.st15{fill:url(#SVGID_00000001626881817272190930000006766044744133349762_);}
</style>
<path class="st0" d="M53.9,48c-0.6,2-5.2,6.4-6.8,3.3L48.2,41l0,0c1.1-0.6,2.3-0.8,3.5-0.5c0.2,0,0.3,0.1,0.5,0.2
	C54.8,41.9,54.6,45.8,53.9,48z"/>
<linearGradient id="SVGID_1_" gradientUnits="userSpaceOnUse" x1="47.07" y1="25.6294" x2="54.3624" y2="25.6294" gradientTransform="matrix(1 0 0 -1 0 72)">
	<stop  offset="0" style="stop-color:#FFAA8B"/>
	<stop  offset="1" style="stop-color:#FFAA8B;stop-opacity:0"/>
</linearGradient>
<path class="st1" d="M53.9,48c-0.6,2-5.2,6.4-6.8,3.3L48.2,41l0,0c1.1-0.6,2.3-0.8,3.5-0.5c0.2,0,0.3,0.1,0.5,0.2
	C54.8,41.9,54.6,45.8,53.9,48z"/>
<path class="st0" d="M5.8,33.3c0,0,1.7,17.4,2.2,21.2s4.5,15.5,20,15.2c11.2-0.5,18.3-3.8,19.5-19.8s1.2-20.4,1.2-20.4l-3.5-10.8
	l-3.6-5l-12.9-1.3l-11.2,0.1l-7.4,0.8l-1.4,4.6L5.8,33.3z"/>
<path class="st2" d="M51.7,40.4c-1.2-0.2-2.5-0.1-3.5,0.5v-7.2c0-1.5-0.4-3.1-1.2-4.4l-4.3-7.7c1.2-1,2.2-2.3,3-3.7
	c1.1-2,1.8-4.2,2-6.5c2.5,2.5,4.7,5.1,6.7,8C54.7,21,52.8,36.3,51.7,40.4z"/>
<path class="st2" d="M47.7,11.5c-0.2,2.3-0.9,4.5-2,6.5c-0.8,1.4-1.8,2.6-3,3.7l0,0l-0.2-0.4l0,0l-0.5-0.1c-0.8-0.1-2.4-0.4-4.7-0.7
	l-1-0.1c-3.4-0.5-8-1.1-13.5-1.8c-0.7,0.8-1.3,1.4-1.9,2l0,0c-0.2,0.2-0.4,0.4-0.7,0.6c-5.4,4.7-8.9,3.5-12.3,3.1
	c-0.3,3-1.2,15.1-1.3,16.4v-0.1c-1.2-0.7-2.7-0.9-4.1-0.4l-0.4,0.2c-0.4-2.5-2.3-16-2.1-16.9c0.9-3.1,2.4-6,4.4-8.6
	c-1.7,0.8-2.1,0.4-2.1,0.4s0.9-0.4,3.8-3.9c3.3-4,8-6.6,13.1-7.4C21.1,4,23.1,4.1,25,4.4c6.4,0.8,14.7,3.3,18.1,4.3
	c1.7,0.6,3.2,1.5,4.5,2.8L47.7,11.5z"/>
<path class="st2" d="M6.6,40.9V41c-1.9-1.5-4.4,0-4.4,0l-0.1-0.4l0.4-0.2c1.3-0.5,2.8-0.4,4.1,0.4L6.6,40.9z"/>
<path class="st2" d="M20.5,10.7c0,0-4.6,6.2,1.9,11.8c1.6,1.4,4.2,2,6.3,2.2c2.9,0.4,5.8,0.2,8.6-0.6c7.6-2.2,11.9-11,9.6-18.6
	c-0.3-1.1-0.8-2.1-1.4-3.1c-0.2,1.5-0.8,3-1.9,4.1c0.4-1.2,0.6-4.9-0.4-6.5c-2.7,3.3-6.6,5.2-10.8,5.3c1.1-0.7,1.4-2.9,1.3-4.2
	c-0.5,1.1-7.1,3-8.8,3.2L20.5,10.7z"/>
<path class="st3" d="M47.7,11.5c-0.2,2.3-0.9,4.5-2,6.5c-0.8,1.4-1.8,2.6-3,3.7l0,0c-0.6,0.5-1.2,0.9-1.8,1.3c-2,1.2-4.2,1.9-6.5,2
	c-1.1,0.1-2.3,0.1-3.4,0c-0.6-0.1-1.1-0.1-1.7-0.2s-1.1-0.2-1.7-0.3l1.7,0.1c0.6,0,1.1,0,1.7,0c1.1,0,2.2-0.1,3.3-0.2
	c2.2-0.3,4.3-1,6.2-2.1c0.5-0.3,1-0.6,1.5-1c1.2-1,2.3-2.2,3.2-3.6c0.6-0.9,1.1-1.9,1.5-2.9c0.3-0.5,0.5-1.1,0.7-1.7
	C47.4,12.5,47.5,12,47.7,11.5z"/>
<path class="st3" d="M41.1,14.5c-0.6,1.6-1.4,3-2.4,4.3c-1,1.3-2.2,2.5-3.6,3.5c-1.4,1-3,1.6-4.6,1.9c-1.7,0.3-3.4,0.2-5-0.2h1.2
	c0.4,0.1,0.9,0.1,1.3,0l1.2-0.1l1.2-0.3c1.5-0.4,3-1.1,4.3-2c1.3-0.9,2.5-2,3.6-3.2C39.3,17.2,40.3,15.9,41.1,14.5z"/>
<path class="st3" d="M16.6,13.8c-0.1,1.5,0.1,2.9,0.7,4.3c0.3,0.6,0.7,1.2,1.1,1.7c0.5,0.5,1.1,1,1.7,1.5c-1.2-0.2-2.2-0.9-3-1.8
	c-0.2-0.3-0.4-0.7-0.6-1c-0.3-0.7-0.5-1.5-0.4-2.3C16,15.3,16.2,14.5,16.6,13.8z"/>
<path class="st3" d="M20,11.9c-0.6,1.4-0.9,3-0.8,4.5c0.1,0.8,0.2,1.5,0.5,2.2c0.1,0.4,0.3,0.7,0.5,1.1s0.4,0.7,0.6,1.1
	c-0.3-0.2-0.6-0.5-0.9-0.8c-0.3-0.3-0.5-0.6-0.7-1c-0.4-0.7-0.7-1.5-0.8-2.4c-0.1-0.8,0-1.7,0.3-2.5C18.9,13.2,19.4,12.4,20,11.9z"
	/>
<path class="st0" d="M6.6,40.8c-1.2-0.7-2.7-0.9-4.1-0.4c-2.5,1.3-2.4,5.1-1.7,7.4c0.6,2,5.2,6.4,6.8,3.3"/>
<linearGradient id="SVGID_00000113345043312957788280000010394759673839584910_" gradientUnits="userSpaceOnUse" x1="0.3625" y1="25.85" x2="7.66" y2="25.85" gradientTransform="matrix(1 0 0 -1 0 72)">
	<stop  offset="0" style="stop-color:#FFAA8B;stop-opacity:0"/>
	<stop  offset="1" style="stop-color:#FFAA8B"/>
</linearGradient>
<path style="fill:url(#SVGID_00000113345043312957788280000010394759673839584910_);" d="M7.7,51.1c-1.7,3.1-6.2-1.4-6.8-3.3
	c-0.7-2.2-0.8-5.8,1.3-7.2l0.4-0.2c1.3-0.5,2.8-0.4,4.1,0.4v0.1L7.7,51.1z"/>
<linearGradient id="SVGID_00000163073593290737636740000009047202993653173173_" gradientUnits="userSpaceOnUse" x1="26.9337" y1="20.5585" x2="26.9337" y2="36.2985" gradientTransform="matrix(1 0 0 -1 0 72)">
	<stop  offset="0" style="stop-color:#FFAA8B;stop-opacity:0.7"/>
	<stop  offset="0.1" style="stop-color:#FFAA8B;stop-opacity:0.58"/>
	<stop  offset="0.29" style="stop-color:#FFAA8B;stop-opacity:0.38"/>
	<stop  offset="0.47" style="stop-color:#FFAA8B;stop-opacity:0.21"/>
	<stop  offset="0.63" style="stop-color:#FFAA8B;stop-opacity:0.1"/>
	<stop  offset="0.77" style="stop-color:#FFAA8B;stop-opacity:3.000000e-02"/>
	<stop  offset="0.87" style="stop-color:#FFAA8B;stop-opacity:0"/>
</linearGradient>
<path style="fill:url(#SVGID_00000163073593290737636740000009047202993653173173_);" d="M27.9,36.2h-2.3c0.4,7.4-2.8,11.6-2,13.3
	c0.9,1.8,3.2,2.5,5,1.5c0.7-0.3,1.2-0.9,1.5-1.5C31,47.8,27.9,45.7,27.9,36.2z"/>
<path class="st2" d="M22.4,30.4c0,0,0,3.2-1.9,3.6s-9.8,1.4-10.8,4.3c0.6-2.2,0.8-4.3,2.9-5.3c1.1-0.4,2.3-0.8,3.4-1.1
	C19,31.2,22.4,30.4,22.4,30.4z"/>
<path class="st2" d="M31.7,30.4c0,0,0,3.2,1.9,3.6c1.9,0.5,9.8,1.4,10.8,4.3c-0.6-2.2-0.8-4.3-2.9-5.3S31.7,30.4,31.7,30.4z"/>
<g>
	<path class="st6" d="M38.1,62.9c-1.1-0.3-2.2-0.5-3.3-0.7c-4.5-0.6-9.1-0.6-13.6,0.2c-0.9,0.2-1.8,0.3-2.7,0.6
		c-0.5,0.1-0.8-0.6-0.4-1.1c0.8-1.1,1.7-2.2,2.7-3.1l0.4-0.4c3.3-3,8.5-5.2,14.6,0.3l0,0c1,0.9,1.9,1.9,2.8,3
		C38.8,62.2,38.5,63,38.1,62.9z"/>
	<path class="st7" d="M34.7,62.3c-4.5-0.6-9.1-0.6-13.6,0.2c1.4-3.2,3.9-5.3,6.8-5.3S33.3,59.2,34.7,62.3z"/>
	<path class="st8" d="M35.7,58.8L35.7,58.8c-4.9-1.4-10.1-1.4-15,0l0.4-0.4C24.5,55.5,29.6,53.3,35.7,58.8
		C35.7,58.8,35.7,58.8,35.7,58.8z"/>
</g>
<path class="st9" d="M19.9,43.3c-1.4-3-6-5.6-8.8-0.9c-0.2,0.4-0.2,0.8,0,1.2c0.8,1.3,3.1,3.8,8.2,1.3
	C19.9,44.6,20.1,43.9,19.9,43.3z"/>
<linearGradient id="SVGID_00000123441735557377500080000006202168303763339955_" gradientUnits="userSpaceOnUse" x1="754.2725" y1="28.9117" x2="748.8514" y2="28.9117" gradientTransform="matrix(1 0 0 -1 -735.88 72)">
	<stop  offset="0" style="stop-color:#248157"/>
	<stop  offset="1" style="stop-color:#24816A;stop-opacity:0"/>
</linearGradient>
<path style="fill:url(#SVGID_00000123441735557377500080000006202168303763339955_);" d="M18.3,42.6c0.3,1.5-0.7,2.9-2.1,3.2
	c-1.5,0.3-2.9-0.7-3.2-2.1c-0.3-1.5,0.7-2.9,2.1-3.2c0.3-0.1,0.7-0.1,1.1,0C17.3,40.6,18.1,41.5,18.3,42.6z"/>
<linearGradient id="SVGID_00000136373269398905866320000013073984785865372058_" gradientUnits="userSpaceOnUse" x1="753.058" y1="28.9096" x2="750.0576" y2="28.9096" gradientTransform="matrix(1 0 0 -1 -735.88 72)">
	<stop  offset="0" style="stop-color:#248157"/>
	<stop  offset="1" style="stop-color:#24816A;stop-opacity:0"/>
</linearGradient>
<path style="fill:url(#SVGID_00000136373269398905866320000013073984785865372058_);" d="M17.2,42.9c0.1,0.8-0.4,1.6-1.3,1.7
	s-1.6-0.4-1.7-1.3c-0.1-0.8,0.4-1.6,1.3-1.7c0.2,0,0.3,0,0.5,0C16.6,41.7,17.1,42.2,17.2,42.9z"/>
<path class="st9" d="M16.6,43.1c0,0.3,0.2,0.5,0.5,0.5c0.3,0,0.5-0.2,0.5-0.5c0-0.3-0.2-0.5-0.5-0.5S16.6,42.8,16.6,43.1z"/>
<path class="st9" d="M14.2,41.9c-0.1,0.5,0.2,1.1,0.7,1.2c0.2,0,0.3,0,0.5,0c0.4-0.1,0.6-0.4,0.7-0.7c0.1-0.5-0.2-1.1-0.7-1.2
	c-0.2,0-0.3,0-0.5,0C14.6,41.3,14.3,41.5,14.2,41.9z"/>
<linearGradient id="SVGID_00000118397326680049861180000004886803123189170066_" gradientUnits="userSpaceOnUse" x1="10.71" y1="26.9508" x2="19.25" y2="26.9508" gradientTransform="matrix(1 0 0 -1 0 72)">
	<stop  offset="0" style="stop-color:#FFAA8B;stop-opacity:0.7"/>
	<stop  offset="0.1" style="stop-color:#FFAA8B;stop-opacity:0.58"/>
	<stop  offset="0.29" style="stop-color:#FFAA8B;stop-opacity:0.38"/>
	<stop  offset="0.47" style="stop-color:#FFAA8B;stop-opacity:0.21"/>
	<stop  offset="0.63" style="stop-color:#FFAA8B;stop-opacity:0.1"/>
	<stop  offset="0.77" style="stop-color:#FFAA8B;stop-opacity:3.000000e-02"/>
	<stop  offset="0.87" style="stop-color:#FFAA8B;stop-opacity:0"/>
</linearGradient>
<path style="fill:url(#SVGID_00000118397326680049861180000004886803123189170066_);" d="M11,43.5c0.7,1.4,2,2.3,3.6,2.5
	c0.8,0.1,1.5,0.1,2.3-0.1c0.8-0.1,1.5-0.3,2.3-0.5c-0.7,0.4-1.4,0.8-2.2,1c-0.8,0.2-1.6,0.3-2.5,0.2c-0.8-0.1-1.6-0.5-2.3-1.1
	C11.6,45,11.1,44.3,11,43.5z"/>
<path class="st2" d="M19.8,44.4c0.2-0.5,0.1-1.1-0.3-1.5c-0.3-0.5-0.7-0.9-1-1.3c-0.8-0.8-1.7-1.3-2.8-1.4c-1-0.2-2.1,0-3,0.6
	c-0.4,0.3-0.8,0.7-1.2,1.1c-0.2,0.2-0.3,0.4-0.4,0.7c-0.1,0.3-0.1,0.6,0,0.8c-0.1-0.3-0.2-0.6-0.1-0.8c0.1-0.3,0.2-0.6,0.3-0.8
	c0.3-0.5,0.6-1,1.1-1.4c1-0.8,2.2-1.1,3.4-0.9c1.2,0.2,2.3,0.8,3.1,1.7c0.4,0.5,0.7,1,0.9,1.5C20.1,43.3,20.1,43.9,19.8,44.4z"/>
<path class="st9" d="M34,43.3c1.3-3,6-5.6,8.8-0.9c0.2,0.4,0.2,0.8,0,1.2c-0.8,1.3-3.1,3.8-8.2,1.3C34.1,44.6,33.8,43.9,34,43.3z"/>
<linearGradient id="SVGID_00000083080147812449234930000007671155850737619389_" gradientUnits="userSpaceOnUse" x1="-1255.6775" y1="28.9117" x2="-1261.0986" y2="28.9117" gradientTransform="matrix(-1 0 0 -1 -1220.14 72)">
	<stop  offset="0" style="stop-color:#248157"/>
	<stop  offset="1" style="stop-color:#24816A;stop-opacity:0"/>
</linearGradient>
<path style="fill:url(#SVGID_00000083080147812449234930000007671155850737619389_);" d="M35.6,42.6c-0.3,1.5,0.7,2.9,2.1,3.2
	c1.5,0.3,2.9-0.7,3.2-2.1c0.3-1.5-0.7-2.9-2.1-3.2c-0.3-0.1-0.7-0.1-1.1,0C36.6,40.6,35.8,41.5,35.6,42.6z"/>
<linearGradient id="SVGID_00000002351241991370817280000001724188719529312157_" gradientUnits="userSpaceOnUse" x1="-1256.8923" y1="28.9113" x2="-1259.8927" y2="28.9113" gradientTransform="matrix(-1 0 0 -1 -1220.14 72)">
	<stop  offset="0" style="stop-color:#248157"/>
	<stop  offset="1" style="stop-color:#24816A;stop-opacity:0"/>
</linearGradient>
<path style="fill:url(#SVGID_00000002351241991370817280000001724188719529312157_);" d="M36.8,42.9c-0.1,0.8,0.4,1.6,1.3,1.7
	c0.8,0.1,1.6-0.4,1.7-1.3c0.1-0.8-0.4-1.6-1.3-1.7c-0.2,0-0.3,0-0.5,0C37.4,41.7,36.9,42.2,36.8,42.9z"/>
<path class="st9" d="M37.3,43.1c0,0.3-0.2,0.5-0.5,0.5c-0.3,0-0.5-0.2-0.5-0.5c0-0.3,0.2-0.5,0.5-0.5S37.3,42.8,37.3,43.1z"/>
<path class="st9" d="M39.7,41.9c0.1,0.5-0.2,1.1-0.7,1.2c-0.2,0-0.3,0-0.5,0c-0.4-0.1-0.6-0.4-0.7-0.7c-0.1-0.5,0.2-1.1,0.7-1.2
	c0.2,0,0.3,0,0.5,0C39.4,41.3,39.6,41.5,39.7,41.9z"/>
<linearGradient id="SVGID_00000155148506380836137520000012741412161859918483_" gradientUnits="userSpaceOnUse" x1="43.22" y1="26.9304" x2="34.68" y2="26.9304" gradientTransform="matrix(1 0 0 -1 0 72)">
	<stop  offset="0" style="stop-color:#FFAA8B;stop-opacity:0.7"/>
	<stop  offset="0.1" style="stop-color:#FFAA8B;stop-opacity:0.58"/>
	<stop  offset="0.29" style="stop-color:#FFAA8B;stop-opacity:0.38"/>
	<stop  offset="0.47" style="stop-color:#FFAA8B;stop-opacity:0.21"/>
	<stop  offset="0.63" style="stop-color:#FFAA8B;stop-opacity:0.1"/>
	<stop  offset="0.77" style="stop-color:#FFAA8B;stop-opacity:3.000000e-02"/>
	<stop  offset="0.87" style="stop-color:#FFAA8B;stop-opacity:0"/>
</linearGradient>
<path style="fill:url(#SVGID_00000155148506380836137520000012741412161859918483_);" d="M42.9,43.5c-0.1,0.8-0.6,1.6-1.2,2.1
	c-0.6,0.6-1.4,0.9-2.3,1.1c-0.8,0.1-1.7,0-2.5-0.2c-0.8-0.2-1.5-0.6-2.2-1c0.8,0.2,1.5,0.4,2.3,0.5c0.7,0.1,1.5,0.2,2.3,0.1
	C40.9,45.8,42.2,44.9,42.9,43.5z"/>
<path class="st2" d="M34.1,44.4c-0.3-0.5-0.3-1.2,0.1-1.7c0.2-0.5,0.5-1,0.9-1.5c0.8-0.9,1.9-1.6,3.1-1.7c1.2-0.2,2.5,0.1,3.4,0.9
	c0.5,0.4,0.8,0.8,1.1,1.4c0.1,0.3,0.3,0.5,0.3,0.8c0,0.3,0,0.6-0.1,0.8c0.1-0.3,0.1-0.6,0-0.8c-0.1-0.3-0.3-0.5-0.4-0.7
	c-0.3-0.4-0.7-0.8-1.2-1.1c-0.9-0.6-2-0.8-3-0.6c-1.1,0.2-2.1,0.7-2.8,1.4c-0.4,0.4-0.7,0.8-1,1.3C34.1,43.3,34,43.9,34.1,44.4z"/>
</svg>
