<?xml version="1.0" encoding="utf-8"?>
<!-- Generator: Adobe Illustrator 25.4.1, SVG Export Plug-In . SVG Version: 6.00 Build 0)  -->
<svg version="1.1" id="Layer_1" xmlns="http://www.w3.org/2000/svg" xmlns:xlink="http://www.w3.org/1999/xlink" x="0px" y="0px"
	 viewBox="0 0 54.4 69.7" style="enable-background:new 0 0 54.4 69.7;" xml:space="preserve">
<style type="text/css">
	.st0{fill:#F5C4B3;}
	.st1{fill:url(#SVGID_1_);}
	.st2{fill:#3F0F1B;}
	.st3{fill:#561326;}
	.st4{fill:url(#SVGID_00000060004768554228789900000017624068014828146059_);}
	.st5{fill:url(#SVGID_00000137131350647849920390000013317571991643984776_);}
	.st6{fill:#FFFFFF;}
	.st7{fill:url(#SVGID_00000139259791245963171160000007767951780112714645_);}
	.st8{fill:url(#SVGID_00000105424742813873401230000015662484815709813130_);}
	.st9{fill:url(#SVGID_00000053527814012929362580000015801032861755187077_);}
	.st10{fill:url(#SVGID_00000102524449503960099770000007989456989119576727_);}
	.st11{fill:url(#SVGID_00000016785908240168160930000018163978644463824041_);}
	.st12{fill:url(#SVGID_00000145748610210142402180000006559192402299223476_);}
	.st13{opacity:0.45;fill:url(#SVGID_00000155842756865637228790000009719502886252478385_);enable-background:new    ;}
	.st14{opacity:0.26;fill:#FFFFFF;enable-background:new    ;}
	.st15{opacity:0.45;fill:url(#SVGID_00000142166596457648421380000003109212463772761020_);enable-background:new    ;}
	.st16{fill:#9B1F1F;stroke:#9B1F1F;stroke-width:0.25;stroke-miterlimit:10;}
	.st17{opacity:0.3;}
	.st18{fill:#F99273;}
</style>
<path class="st0" d="M53.9,48c-0.6,2-5.2,6.4-6.8,3.3L48.2,41l0,0c1.1-0.6,2.3-0.8,3.5-0.5c0.2,0,0.3,0.1,0.5,0.2
	C54.8,41.9,54.6,45.8,53.9,48z"/>
<linearGradient id="SVGID_1_" gradientUnits="userSpaceOnUse" x1="47.07" y1="786.3679" x2="54.3624" y2="786.3679" gradientTransform="matrix(1 0 0 1 0 -740)">
	<stop  offset="0" style="stop-color:#FFAA8B"/>
	<stop  offset="1" style="stop-color:#FFAA8B;stop-opacity:0"/>
</linearGradient>
<path class="st1" d="M53.9,48c-0.6,2-5.2,6.4-6.8,3.3L48.2,41l0,0c1.1-0.6,2.3-0.8,3.5-0.5c0.2,0,0.3,0.1,0.5,0.2
	C54.8,41.9,54.6,45.8,53.9,48z"/>
<path class="st0" d="M5.8,33.3c0,0,1.7,17.4,2.2,21.2S12.5,70,28,69.7c11.2-0.5,18.3-3.8,19.5-19.8s1.2-20.4,1.2-20.4l-3.5-10.8
	l-3.6-5l-12.9-1.3l-11.2,0.1l-7.4,0.8l-1.4,4.6L5.8,33.3z"/>
<path class="st2" d="M51.7,40.4c-1.2-0.2-2.5-0.1-3.5,0.5v-7.2c0-1.5-0.4-3.1-1.2-4.4l-4.3-7.7c1.2-1,2.2-2.3,3-3.7
	c1.1-2,1.8-4.2,2-6.5c2.5,2.5,4.7,5.1,6.7,8C54.7,21,52.8,36.3,51.7,40.4z"/>
<path class="st2" d="M47.7,11.5c-0.2,2.3-0.9,4.5-2,6.5c-0.8,1.4-1.8,2.6-3,3.7l0,0l-0.2-0.4l0,0L42,21.2c-0.8-0.1-2.4-0.4-4.7-0.7
	l-1-0.1c-3.4-0.5-8-1.1-13.5-1.8c-0.7,0.8-1.3,1.4-1.9,2l0,0c-0.2,0.2-0.4,0.4-0.7,0.6c-5.4,4.7-8.9,3.5-12.3,3.1
	c-0.3,3-1.2,15.1-1.3,16.4v-0.1c-1.2-0.7-2.7-0.9-4.1-0.4l-0.4,0.2c-0.4-2.5-2.3-16-2.1-16.9c0.9-3.1,2.4-6,4.4-8.6
	c-1.7,0.8-2.1,0.4-2.1,0.4s0.9-0.4,3.8-3.9c3.3-4,8-6.6,13.1-7.4c1.9,0,3.9,0.1,5.8,0.4c6.4,0.8,14.7,3.3,18.1,4.3
	c1.7,0.6,3.2,1.5,4.5,2.8L47.7,11.5z"/>
<path class="st2" d="M6.6,40.9L6.6,40.9C4.7,39.5,2.2,41,2.2,41l-0.1-0.4l0.4-0.2c1.3-0.5,2.8-0.4,4.1,0.4V40.9z"/>
<path class="st2" d="M20.5,10.7c0,0-4.6,6.2,1.9,11.8c1.6,1.4,4.2,2,6.3,2.2c2.9,0.4,5.8,0.2,8.6-0.6c7.6-2.2,11.9-11,9.6-18.6
	c-0.3-1.1-0.8-2.1-1.4-3.1c-0.2,1.5-0.8,3-1.9,4.1C44,5.3,44.2,1.6,43.2,0c-2.7,3.3-6.6,5.2-10.8,5.3c1.1-0.7,1.4-2.9,1.3-4.2
	c-0.5,1.1-7.1,3-8.8,3.2L20.5,10.7z"/>
<path class="st3" d="M47.7,11.5c-0.2,2.3-0.9,4.5-2,6.5c-0.8,1.4-1.8,2.6-3,3.7l0,0c-0.6,0.5-1.2,0.9-1.8,1.3c-2,1.2-4.2,1.9-6.5,2
	c-1.1,0.1-2.3,0.1-3.4,0c-0.6-0.1-1.1-0.1-1.7-0.2s-1.1-0.2-1.7-0.3l1.7,0.1c0.6,0,1.1,0,1.7,0c1.1,0,2.2-0.1,3.3-0.2
	c2.2-0.3,4.3-1,6.2-2.1c0.5-0.3,1-0.6,1.5-1c1.2-1,2.3-2.2,3.2-3.6c0.6-0.9,1.1-1.9,1.5-2.9c0.3-0.5,0.5-1.1,0.7-1.7
	C47.4,12.5,47.5,12,47.7,11.5z"/>
<path class="st3" d="M41.1,14.5c-0.6,1.6-1.4,3-2.4,4.3s-2.2,2.5-3.6,3.5c-1.4,1-3,1.6-4.6,1.9c-1.7,0.3-3.4,0.2-5-0.2h1.2
	c0.4,0.1,0.9,0.1,1.3,0l1.2-0.1l1.2-0.3c1.5-0.4,3-1.1,4.3-2s2.5-2,3.6-3.2C39.3,17.2,40.3,15.9,41.1,14.5z"/>
<path class="st3" d="M16.6,13.8c-0.1,1.5,0.1,2.9,0.7,4.3c0.3,0.6,0.7,1.2,1.1,1.7c0.5,0.5,1.1,1,1.7,1.5c-1.2-0.2-2.2-0.9-3-1.8
	c-0.2-0.3-0.4-0.7-0.6-1c-0.3-0.7-0.5-1.5-0.4-2.3C16,15.3,16.2,14.5,16.6,13.8z"/>
<path class="st3" d="M20,11.9c-0.6,1.4-0.9,3-0.8,4.5c0.1,0.8,0.2,1.5,0.5,2.2c0.1,0.4,0.3,0.7,0.5,1.1s0.4,0.7,0.6,1.1
	c-0.3-0.2-0.6-0.5-0.9-0.8s-0.5-0.6-0.7-1c-0.4-0.7-0.7-1.5-0.8-2.4c-0.1-0.8,0-1.7,0.3-2.5C18.9,13.2,19.4,12.4,20,11.9z"/>
<path class="st0" d="M6.6,40.8c-1.2-0.7-2.7-0.9-4.1-0.4c-2.5,1.3-2.4,5.1-1.7,7.4c0.6,2,5.2,6.4,6.8,3.3"/>
<linearGradient id="SVGID_00000180346539983061289660000007445412394999801008_" gradientUnits="userSpaceOnUse" x1="0.3625" y1="786.1271" x2="7.66" y2="786.1271" gradientTransform="matrix(1 0 0 1 0 -740)">
	<stop  offset="0" style="stop-color:#FFAA8B;stop-opacity:0"/>
	<stop  offset="1" style="stop-color:#FFAA8B"/>
</linearGradient>
<path style="fill:url(#SVGID_00000180346539983061289660000007445412394999801008_);" d="M7.7,51.1c-1.7,3.1-6.2-1.4-6.8-3.3
	c-0.7-2.2-0.8-5.8,1.3-7.2l0.4-0.2c1.3-0.5,2.8-0.4,4.1,0.4v0.1L7.7,51.1z"/>
<linearGradient id="SVGID_00000132792209753310435310000009647512792276541592_" gradientUnits="userSpaceOnUse" x1="26.8675" y1="791.4415" x2="26.8675" y2="775.7015" gradientTransform="matrix(1 0 0 1 0 -740)">
	<stop  offset="0" style="stop-color:#FFAA8B;stop-opacity:0.7"/>
	<stop  offset="0.1" style="stop-color:#FFAA8B;stop-opacity:0.58"/>
	<stop  offset="0.29" style="stop-color:#FFAA8B;stop-opacity:0.38"/>
	<stop  offset="0.47" style="stop-color:#FFAA8B;stop-opacity:0.21"/>
	<stop  offset="0.63" style="stop-color:#FFAA8B;stop-opacity:0.1"/>
	<stop  offset="0.77" style="stop-color:#FFAA8B;stop-opacity:3.000000e-02"/>
	<stop  offset="0.87" style="stop-color:#FFAA8B;stop-opacity:0"/>
</linearGradient>
<path style="fill:url(#SVGID_00000132792209753310435310000009647512792276541592_);" d="M27.9,36.2h-2.3c0.4,7.4-2.8,11.6-2,13.3
	c0.9,1.8,3.2,2.5,5,1.5c0.7-0.3,1.2-0.9,1.5-1.5C31,47.8,27.9,45.7,27.9,36.2z"/>
<path class="st6" d="M20.2,43c-1.4-3-6-5.6-8.8-0.9c-0.2,0.4-0.2,0.8,0,1.2c0.8,1.3,3.1,3.8,8.2,1.3C20.2,44.3,20.5,43.6,20.2,43z"
	/>
<linearGradient id="SVGID_00000013177783392365678100000006815991871591438772_" gradientUnits="userSpaceOnUse" x1="754.59" y1="782.8392" x2="749.169" y2="782.8392" gradientTransform="matrix(1 0 0 1 -735.88 -740)">
	<stop  offset="0" style="stop-color:#248157"/>
	<stop  offset="1" style="stop-color:#24816A;stop-opacity:0"/>
</linearGradient>
<path style="fill:url(#SVGID_00000013177783392365678100000006815991871591438772_);" d="M18.6,42.3c0.3,1.5-0.7,2.9-2.1,3.2
	s-2.9-0.7-3.2-2.1c-0.3-1.5,0.7-2.9,2.1-3.2c0.4-0.1,0.7-0.1,1.1,0C17.6,40.4,18.4,41.2,18.6,42.3z"/>
<linearGradient id="SVGID_00000069362043215784206310000000268501513458496691_" gradientUnits="userSpaceOnUse" x1="753.3774" y1="782.85" x2="750.3774" y2="782.85" gradientTransform="matrix(1 0 0 1 -735.88 -740)">
	<stop  offset="0" style="stop-color:#248157"/>
	<stop  offset="1" style="stop-color:#24816A;stop-opacity:0"/>
</linearGradient>
<path style="fill:url(#SVGID_00000069362043215784206310000000268501513458496691_);" d="M17.5,42.6c0.1,0.8-0.4,1.6-1.3,1.7
	c-0.2,0-0.3,0-0.5,0c-0.6-0.1-1.1-0.6-1.2-1.2c-0.1-0.8,0.4-1.6,1.3-1.7c0.2,0,0.3,0,0.5,0C16.9,41.5,17.4,42,17.5,42.6z"/>
<path class="st6" d="M17,42.9c0,0.3,0.2,0.5,0.5,0.5s0.5-0.2,0.5-0.5s-0.2-0.5-0.5-0.5S17,42.6,17,42.9z"/>
<path class="st6" d="M14.5,41.6c-0.1,0.5,0.2,1.1,0.7,1.2c0.2,0,0.3,0,0.5,0c0.4-0.1,0.6-0.4,0.7-0.7c0.1-0.5-0.2-1.1-0.7-1.2
	c-0.2,0-0.3,0-0.5,0C14.9,41,14.6,41.3,14.5,41.6z"/>
<linearGradient id="SVGID_00000070805612318755329650000000454576770704185233_" gradientUnits="userSpaceOnUse" x1="11.02" y1="784.7696" x2="19.56" y2="784.7696" gradientTransform="matrix(1 0 0 1 0 -740)">
	<stop  offset="0" style="stop-color:#FFAA8B;stop-opacity:0.7"/>
	<stop  offset="0.1" style="stop-color:#FFAA8B;stop-opacity:0.58"/>
	<stop  offset="0.29" style="stop-color:#FFAA8B;stop-opacity:0.38"/>
	<stop  offset="0.47" style="stop-color:#FFAA8B;stop-opacity:0.21"/>
	<stop  offset="0.63" style="stop-color:#FFAA8B;stop-opacity:0.1"/>
	<stop  offset="0.77" style="stop-color:#FFAA8B;stop-opacity:3.000000e-02"/>
	<stop  offset="0.87" style="stop-color:#FFAA8B;stop-opacity:0"/>
</linearGradient>
<path style="fill:url(#SVGID_00000070805612318755329650000000454576770704185233_);" d="M11.3,43.2c0.7,1.4,2,2.3,3.5,2.6
	c0.8,0.1,1.5,0.1,2.3-0.1c0.8-0.1,1.5-0.3,2.3-0.6c-0.7,0.4-1.4,0.8-2.2,1c-0.8,0.2-1.6,0.3-2.5,0.2c-0.8-0.1-1.6-0.5-2.3-1.1
	C11.9,44.7,11.5,44,11.3,43.2z"/>
<path class="st2" d="M20.1,44.2c0.2-0.5,0.1-1.1-0.3-1.5c-0.3-0.5-0.7-0.9-1.1-1.3C18,40.6,17,40.1,16,39.9c-1-0.2-2.1,0-3,0.6
	c-0.4,0.3-0.8,0.7-1.2,1.1c-0.2,0.2-0.3,0.4-0.4,0.7c-0.1,0.3-0.1,0.6,0,0.8c-0.1-0.3-0.2-0.6-0.1-0.8c0.1-0.3,0.2-0.6,0.3-0.8
	c0.3-0.5,0.6-1,1.1-1.4c1-0.8,2.2-1.1,3.4-0.9c1.2,0.2,2.3,0.8,3,1.7c0.4,0.5,0.6,1,0.9,1.5C20.3,43,20.4,43.6,20.1,44.2z"/>
<path class="st6" d="M34.4,43c1.3-3,6-5.6,8.8-0.9c0.2,0.4,0.2,0.8,0,1.2c-0.8,1.3-3.2,3.8-8.2,1.4C34.4,44.4,34.1,43.6,34.4,43
	L34.4,43z"/>
<linearGradient id="SVGID_00000002377797260707634700000000395292638088782758_" gradientUnits="userSpaceOnUse" x1="-1725.6693" y1="782.8392" x2="-1731.0903" y2="782.8392" gradientTransform="matrix(-1 0 0 1 -1689.8101 -740)">
	<stop  offset="0" style="stop-color:#248157"/>
	<stop  offset="1" style="stop-color:#24816A;stop-opacity:0"/>
</linearGradient>
<path style="fill:url(#SVGID_00000002377797260707634700000000395292638088782758_);" d="M35.9,42.3c-0.3,1.5,0.7,2.9,2.1,3.2
	c1.5,0.3,2.9-0.7,3.2-2.1c0.3-1.5-0.7-2.9-2.1-3.2c-0.4-0.1-0.7-0.1-1.1,0C36.9,40.4,36.1,41.2,35.9,42.3z"/>
<linearGradient id="SVGID_00000164491246013956991670000001266968132770368167_" gradientUnits="userSpaceOnUse" x1="-1726.8806" y1="782.8306" x2="-1729.8811" y2="782.8306" gradientTransform="matrix(-1 0 0 1 -1689.8101 -740)">
	<stop  offset="0" style="stop-color:#248157"/>
	<stop  offset="1" style="stop-color:#24816A;stop-opacity:0"/>
</linearGradient>
<path style="fill:url(#SVGID_00000164491246013956991670000001266968132770368167_);" d="M37.1,42.6c-0.1,0.8,0.4,1.6,1.2,1.7
	c0.2,0,0.3,0,0.5,0c0.8-0.1,1.4-0.9,1.2-1.7c-0.1-0.8-0.9-1.4-1.7-1.2C37.7,41.5,37.2,42,37.1,42.6z"/>
<path class="st6" d="M37.6,42.9c0,0.3-0.2,0.5-0.5,0.5s-0.5-0.2-0.5-0.5s0.2-0.5,0.5-0.5S37.6,42.6,37.6,42.9z"/>
<path class="st6" d="M40,41.6c0.1,0.5-0.2,1.1-0.7,1.2c-0.2,0-0.3,0-0.5,0c-0.4-0.1-0.6-0.4-0.7-0.7c-0.1-0.5,0.2-1.1,0.7-1.2
	C39.3,40.8,39.9,41.1,40,41.6z"/>
<linearGradient id="SVGID_00000144304080065295370720000004416515401534401162_" gradientUnits="userSpaceOnUse" x1="43.54" y1="784.8196" x2="35" y2="784.8196" gradientTransform="matrix(1 0 0 1 0 -740)">
	<stop  offset="0" style="stop-color:#FFAA8B;stop-opacity:0.7"/>
	<stop  offset="0.1" style="stop-color:#FFAA8B;stop-opacity:0.58"/>
	<stop  offset="0.29" style="stop-color:#FFAA8B;stop-opacity:0.38"/>
	<stop  offset="0.47" style="stop-color:#FFAA8B;stop-opacity:0.21"/>
	<stop  offset="0.63" style="stop-color:#FFAA8B;stop-opacity:0.1"/>
	<stop  offset="0.77" style="stop-color:#FFAA8B;stop-opacity:3.000000e-02"/>
	<stop  offset="0.87" style="stop-color:#FFAA8B;stop-opacity:0"/>
</linearGradient>
<path style="fill:url(#SVGID_00000144304080065295370720000004416515401534401162_);" d="M43.2,43.2c-0.1,0.8-0.5,1.6-1.2,2.1
	c-0.6,0.6-1.4,0.9-2.3,1.1c-0.8,0.1-1.7,0-2.5-0.2s-1.5-0.6-2.2-1c0.8,0.2,1.5,0.4,2.3,0.6c0.7,0.1,1.5,0.2,2.3,0.1
	C41.2,45.6,42.6,44.6,43.2,43.2z"/>
<path class="st2" d="M34.5,44.2c-0.3-0.5-0.2-1.2,0.1-1.7c0.2-0.5,0.5-1,0.9-1.5c0.8-0.9,1.9-1.6,3.1-1.7c1.2-0.2,2.5,0.1,3.4,0.9
	c0.4,0.4,0.8,0.9,1.1,1.4c0.1,0.3,0.3,0.5,0.3,0.8s0,0.6-0.1,0.8c0.1-0.3,0.1-0.6,0-0.8c-0.1-0.3-0.2-0.5-0.4-0.7
	c-0.3-0.4-0.7-0.8-1.2-1.1c-0.9-0.6-2-0.8-3-0.6c-1.1,0.1-2.1,0.6-2.8,1.4c-0.4,0.4-0.7,0.8-1,1.3C34.4,43,34.3,43.6,34.5,44.2z"/>
<path class="st2" d="M22.3,29.5c0,0,0,3.2-1.9,3.7s-9.8,1.4-10.8,4.3c0.6-2.2,0.8-4.3,2.9-5.3c1.1-0.4,2.3-0.8,3.5-1.1
	C18.9,30.3,22.3,29.5,22.3,29.5z"/>
<path class="st2" d="M31.6,29.5c0,0,0,3.2,1.9,3.7c1.9,0.5,9.8,1.4,10.8,4.3c-0.5-2.2-0.8-4.3-2.9-5.3S31.6,29.5,31.6,29.5z"/>
<linearGradient id="SVGID_00000131357763714587734960000008581891350733132699_" gradientUnits="userSpaceOnUse" x1="15.7699" y1="784.773" x2="15.7199" y2="785.933" gradientTransform="matrix(1 0 0 1 0 -740)">
	<stop  offset="0" style="stop-color:#C1EBFB"/>
	<stop  offset="1" style="stop-color:#00C3FF"/>
</linearGradient>
<path style="opacity:0.45;fill:url(#SVGID_00000131357763714587734960000008581891350733132699_);enable-background:new    ;" d="
	M12.5,44.6c0-0.2,0.2-0.3,0.4-0.3c0.3,0,0.5,0.3,0.7,0.3c0.3,0.1,0.7,0.1,1-0.1c0.2-0.1,0.4-0.1,0.7,0c0.2,0,0.4,0.2,0.7,0.2
	c0.2,0,0.4,0,0.6,0c0.2,0,0.4-0.2,0.6-0.2s0.4,0,0.6,0.1s0.3,0.1,0.5,0.1c0.1,0,0.3-0.1,0.5,0s0.3,0.2,0.2,0.4
	c-0.1,0.3-0.4,0.5-0.7,0.5c-0.2,0-0.5,0-0.7,0s-0.5,0.1-0.7,0.2c-0.5,0.1-1,0.1-1.5,0c-0.2,0-0.4-0.1-0.6-0.2c-0.2,0-0.4,0-0.6,0
	c-0.4,0-0.5-0.2-0.8-0.4c-0.2-0.1-0.4-0.2-0.6-0.4C12.7,44.7,12.7,44.7,12.5,44.6C12.5,44.7,12.5,44.7,12.5,44.6z"/>
<path class="st14" d="M18.9,44.9c0,0.1,0,0.1,0,0.2c-0.1,0.3-0.4,0.5-0.7,0.5c-0.2,0-0.5,0-0.7,0s-0.5,0.1-0.7,0.2
	c-0.5,0.1-1,0.1-1.5,0c-0.2,0-0.4-0.1-0.6-0.2c-0.2,0-0.4,0-0.6,0c-0.4,0-0.6-0.2-0.8-0.4c-0.2-0.1-0.4-0.2-0.6-0.3
	c-0.1-0.1-0.1-0.1-0.2-0.2v-0.1l0,0c0,0.1,0.1,0.2,0.2,0.2c0.2,0.1,0.4,0.2,0.6,0.3c0.3,0.2,0.5,0.4,0.8,0.4s0.4,0,0.6,0
	s0.4,0.1,0.6,0.2c0.5,0.1,1,0.1,1.5,0c0.2,0,0.5-0.1,0.7-0.2s0.5,0,0.7,0C18.5,45.5,18.8,45.3,18.9,44.9z"/>
<circle class="st6" cx="14.4" cy="45.2" r="0.3"/>
<path class="st6" d="M15.4,45.3c0,0.1-0.1,0.2-0.2,0.2S15,45.4,15,45.3s0.1-0.2,0.2-0.2S15.4,45.2,15.4,45.3z"/>
<linearGradient id="SVGID_00000123398767239740760620000001536247030027007404_" gradientUnits="userSpaceOnUse" x1="-940.4202" y1="784.7743" x2="-940.4702" y2="785.9343" gradientTransform="matrix(-1 0 0 1 -901.34 -740)">
	<stop  offset="0" style="stop-color:#C1EBFB"/>
	<stop  offset="1" style="stop-color:#00C3FF"/>
</linearGradient>
<path style="opacity:0.45;fill:url(#SVGID_00000123398767239740760620000001536247030027007404_);enable-background:new    ;" d="
	M42.4,44.6c0-0.2-0.2-0.3-0.5-0.3s-0.5,0.3-0.7,0.3c-0.3,0.1-0.7,0.1-1-0.1c-0.2-0.1-0.4-0.1-0.7,0c-0.2,0-0.4,0.2-0.7,0.2
	c-0.2,0-0.4,0-0.6,0c-0.2,0-0.4-0.2-0.6-0.2c-0.2,0-0.4,0-0.6,0.1c-0.2,0.1-0.3,0.1-0.5,0.1s-0.3-0.1-0.5,0s-0.3,0.2-0.2,0.4
	c0.1,0.3,0.4,0.5,0.7,0.5c0.2,0,0.5,0,0.7,0s0.5,0.1,0.7,0.2c0.5,0.1,1,0.1,1.5,0c0.2,0,0.4-0.1,0.6-0.2c0.2,0,0.4,0,0.6,0
	c0.3,0,0.5-0.2,0.8-0.4c0.2-0.1,0.4-0.2,0.6-0.4c0.1-0.1,0.1-0.1,0.2-0.2C42.4,44.7,42.4,44.7,42.4,44.6z"/>
<path class="st14" d="M36,44.9c0,0.1,0,0.1,0,0.2c0.1,0.3,0.4,0.5,0.7,0.5c0.2,0,0.5,0,0.7,0s0.5,0.1,0.7,0.2c0.5,0.1,1,0.1,1.5,0
	c0.2,0,0.3-0.1,0.5-0.2c0.2,0,0.4,0,0.6,0c0.3,0,0.5-0.2,0.8-0.4c0.2-0.1,0.4-0.2,0.6-0.3c0.1-0.1,0.1-0.1,0.2-0.2v-0.1l0,0
	c0,0.1-0.1,0.2-0.2,0.2c-0.2,0.1-0.4,0.2-0.6,0.3c-0.3,0.2-0.5,0.4-0.8,0.4s-0.4,0-0.6,0s-0.4,0.1-0.5,0.2c-0.5,0.1-1,0.1-1.5,0
	c-0.2,0-0.5-0.1-0.7-0.2s-0.5,0-0.7,0C36.4,45.5,36.1,45.3,36,44.9z"/>
<path class="st6" d="M40.2,45.2c0,0.1,0.2,0.2,0.3,0.2s0.2-0.1,0.2-0.2c0-0.1-0.1-0.3-0.2-0.3S40.2,45,40.2,45.2
	C40.2,45.1,40.2,45.1,40.2,45.2z"/>
<path class="st6" d="M39.4,45.3c0,0.1,0.1,0.2,0.2,0.2c0.1,0,0.2-0.1,0.2-0.1l0,0c0-0.1-0.1-0.2-0.2-0.2
	C39.5,45.1,39.4,45.2,39.4,45.3z"/>
<path class="st16" d="M19.7,60.2c0.9-0.7,2-1.3,2.9-1.7c0.7-0.4,1.5-0.6,2.3-0.6c0.5,0.2,1.1,0.4,1.6,0.7c0.7,0.4,1.3,0.6,2,0.4
	c0.7-0.2,1.3-0.7,2-0.9c2-0.6,3.6,0.7,5.2,2c0.3,0.2,0.5-0.2,0.3-0.6c-1.3-1.7-3-2.6-4.8-2.4c-3,0.8-1.2,0.2-2.1,0.7
	c-0.4,0.4-0.9,0.4-1.3,0.4s-0.9-0.2-1.3-0.4c-0.5-0.4-1.1-0.6-1.6-0.7c-0.8,0-1.5,0.2-2.1,0.4c-1.1,0.6-2.1,1.1-3,2
	c-0.1,0-0.1,0.2,0,0.4C19.6,60.2,19.7,60.2,19.7,60.2L19.7,60.2z"/>
<g class="st17">
	<path class="st18" d="M26.9,61c0.3-0.2,0.7-0.2,1-0.2c0.2,0,0.3,0,0.5,0.1s0.3,0.1,0.5,0.1c0.1,0,0.1,0,0.1-0.1v-0.1
		c-0.2-0.1-0.4-0.2-0.5-0.2c-0.2,0-0.4-0.1-0.6-0.1c-0.4,0-0.8,0.1-1.1,0.3c-0.1,0-0.1,0.1,0,0.2C26.8,61,26.9,61,26.9,61L26.9,61z"
		/>
</g>
</svg>
