<svg xmlns="http://www.w3.org/2000/svg" viewBox="0 0 40.36 174.47"><defs><style>.cls-1{fill:#2c2c2c;}.cls-2{fill:#de9d01;}.cls-3{fill:#fff;}.cls-4{fill:#bf8005;}</style></defs><g id="Layer_2" data-name="Layer 2"><g id="Layer_1-2" data-name="Layer 1"><path class="cls-1" d="M24.16,0s4.43,60.38,3.91,75.45l4,79.14-13.16-.78C16,117.55,11.13,99.36,11.27,76L0,5.57A64.7,64.7,0,0,1,24.16,0Z"/><path class="cls-2" d="M18.4,153.15c.37-5.2,5-8,9.76-6.73s5.19,9,5.19,9a24.26,24.26,0,0,1,6.9,14c0,.2.07.4.09.61a3.14,3.14,0,0,1-2.6,3.43,69.63,69.63,0,0,1-23.92.06A3.11,3.11,0,0,1,11.28,170c0-.07,0-.13,0-.19.52-3.94,1.59-11.17,6.41-13.85Z"/><path class="cls-3" d="M20.24,159.15l-.42-1c.29-.13,7.11-3.06,12.09.19l-.57.87C26.83,156.32,20.3,159.12,20.24,159.15Z"/><path class="cls-3" d="M21.09,159a1.17,1.17,0,1,1-1-1.34A1.16,1.16,0,0,1,21.09,159Z"/><path class="cls-3" d="M32.82,158.73a1.17,1.17,0,1,1-1-1.34A1.15,1.15,0,0,1,32.82,158.73Z"/><path class="cls-3" d="M20.35,156.22l-.41-.95c.29-.13,7.11-3.06,12.09.19l-.57.87C27,153.39,20.42,156.19,20.35,156.22Z"/><path class="cls-3" d="M21.21,156.08a1.17,1.17,0,1,1-1-1.34A1.16,1.16,0,0,1,21.21,156.08Z"/><path class="cls-3" d="M32.94,155.8a1.17,1.17,0,1,1-1-1.34A1.16,1.16,0,0,1,32.94,155.8Z"/><path class="cls-3" d="M20.24,162.07l-.42-.95c.29-.13,7.11-3.06,12.09.19l-.57.87C26.83,159.24,20.3,162,20.24,162.07Z"/><path class="cls-3" d="M21.09,161.93a1.17,1.17,0,1,1-2.3-.38,1.17,1.17,0,1,1,2.3.38Z"/><path class="cls-3" d="M32.82,161.65a1.17,1.17,0,1,1-1-1.34A1.15,1.15,0,0,1,32.82,161.65Z"/><path class="cls-3" d="M28.83,149.77a9.46,9.46,0,0,0-6.49.26,3.37,3.37,0,0,0,0,2.39,23.92,23.92,0,0,1,6.59-.15A3.64,3.64,0,0,0,28.83,149.77Z"/><path class="cls-4" d="M37.74,173.41a69.63,69.63,0,0,1-23.92.06A3.11,3.11,0,0,1,11.28,170c0-.07,0-.13,0-.19a52.19,52.19,0,0,0,29-.46c0,.2.07.4.09.61A3.14,3.14,0,0,1,37.74,173.41Z"/></g></g></svg>