<svg xmlns="http://www.w3.org/2000/svg" viewBox="0 0 40.36 174.47"><defs><style>.cls-1{fill:#2c2c2c;}.cls-2{fill:#de9d01;}.cls-3{fill:#fff;}.cls-4{fill:#bf8005;}</style></defs><g id="Layer_2" data-name="Layer 2"><g id="Layer_1-2" data-name="Layer 1"><path class="cls-1" d="M16.2,0s-4.43,60.38-3.91,75.45l-4,79.14,13.17-.78c2.85-36.26,7.75-54.45,7.6-77.84L40.36,5.57A64.7,64.7,0,0,0,16.2,0Z"/><path class="cls-2" d="M22,153.15c-.37-5.2-5-8-9.76-6.73s-5.19,9-5.19,9a24.33,24.33,0,0,0-6.9,14c0,.2-.06.4-.08.61a3.13,3.13,0,0,0,2.6,3.43,69.63,69.63,0,0,0,23.92.06A3.1,3.1,0,0,0,29.07,170c0-.07,0-.13,0-.19-.52-3.94-1.59-11.17-6.41-13.85Z"/><path class="cls-3" d="M20.12,159.15l.42-1c-.29-.13-7.12-3.06-12.09.19l.56.87C13.52,156.32,20.05,159.12,20.12,159.15Z"/><path class="cls-3" d="M19.26,159a1.17,1.17,0,1,0,1-1.34A1.17,1.17,0,0,0,19.26,159Z"/><path class="cls-3" d="M7.53,158.73a1.17,1.17,0,1,0,1-1.34A1.17,1.17,0,0,0,7.53,158.73Z"/><path class="cls-3" d="M20,156.22l.42-.95c-.29-.13-7.12-3.06-12.09.19l.57.87C13.41,153.39,19.94,156.19,20,156.22Z"/><path class="cls-3" d="M19.15,156.08a1.15,1.15,0,0,0,1.34,1,1.17,1.17,0,1,0-1.34-1Z"/><path class="cls-3" d="M7.41,155.8a1.17,1.17,0,1,0,1-1.34A1.17,1.17,0,0,0,7.41,155.8Z"/><path class="cls-3" d="M20.12,162.07l.42-.95c-.29-.13-7.12-3.06-12.09.19l.56.87C13.52,159.24,20.05,162,20.12,162.07Z"/><path class="cls-3" d="M19.26,161.93a1.17,1.17,0,1,0,1-1.34A1.17,1.17,0,0,0,19.26,161.93Z"/><path class="cls-3" d="M7.53,161.65a1.17,1.17,0,1,0,1-1.34A1.17,1.17,0,0,0,7.53,161.65Z"/><path class="cls-3" d="M11.52,149.77A9.49,9.49,0,0,1,18,150a3.38,3.38,0,0,1,0,2.39,23.84,23.84,0,0,0-6.58-.15A3.67,3.67,0,0,1,11.52,149.77Z"/><path class="cls-4" d="M2.62,173.41a69.63,69.63,0,0,0,23.92.06A3.1,3.1,0,0,0,29.07,170c0-.07,0-.13,0-.19A52.19,52.19,0,0,1,.1,169.37c0,.2-.06.4-.08.61A3.13,3.13,0,0,0,2.62,173.41Z"/></g></g></svg>