<?xml version="1.0" encoding="utf-8"?>
<!-- Generator: Adobe Illustrator 25.4.1, SVG Export Plug-In . SVG Version: 6.00 Build 0)  -->
<svg version="1.1" id="Layer_1" xmlns="http://www.w3.org/2000/svg" xmlns:xlink="http://www.w3.org/1999/xlink" x="0px" y="0px"
	 viewBox="0 0 41 133.5" style="enable-background:new 0 0 41 133.5;" xml:space="preserve">
<style type="text/css">
	.st0{fill:#FFAF82;}
	.st1{fill:#01C480;}
</style>
<g id="Layer_2_00000053544704194734098990000017827177802038551735_">
	<g id="Layer_1-2">
		<path class="st0" d="M14,108.4c0.7,2.2,1.5,4.4,2.4,6.6c1.3,2.8,0.4,4.9,1.2,7.4s-2.2,2.3-2.8-0.3s-0.3-3.9-0.9-4
			s-2.1,6.3-2.3,8.1s0.1,6.4-0.5,7.1s-2.3-1.9-1.8-6.6s0.1-4.7,0.1-4.7s-0.4,1.9-0.9,3.8c-0.4,1.9-0.5,3.9-0.4,5.8
			c0.1,1.4-1.3,2-1.7,1.3s-1.1-5.5-0.5-7.3s1.2-5,1.2-5S5.3,124.9,5,126s0.2,5.3-0.8,6.1c-0.4,0.3-1.7-0.1-1.5-6.1
			c0.2-1.6,0.6-3.2,1.1-4.7c-0.7,1-1.2,2-1.5,3.2c-0.4,1.6-0.7,3.2-0.8,4.9c-0.1,1.6-1.6,1.4-1.6-1.5s0.5-6,1.3-7.5s2-10.4,4.4-13.7
			L14,108.4z"/>
		<path class="st1" d="M41,13c0,0-6.8,31.7-12.6,42.7c0,0-3.1,15.4-14.1,53.3c0,0-5.7,2.3-9.1-2.1c0,0,5.3-41.6,8.5-55
			C13.7,52,28,6,32.8,0C32.8,0,40.2,3,41,13z"/>
	</g>
</g>
</svg>
