<?xml version="1.0" encoding="utf-8"?>
<!-- Generator: Adobe Illustrator 25.4.1, SVG Export Plug-In . SVG Version: 6.00 Build 0)  -->
<svg version="1.1" id="Layer_1" xmlns="http://www.w3.org/2000/svg" xmlns:xlink="http://www.w3.org/1999/xlink" x="0px" y="0px"
	 viewBox="0 0 58.7 150.1" style="enable-background:new 0 0 58.7 150.1;" xml:space="preserve">
<style type="text/css">
	.st0{fill:#2C2C2C;}
	.st1{fill:#01C480;}
	.st2{fill:#FFFFFF;}
	.st3{fill:#E2E2E2;}
	.st4{fill:#F5C4B3;}
</style>
<path class="st0" d="M0,108.6c-0.1-5.5,0.9-10.9,3.1-16.1c20.6-1,53,0,53,0l0.1,0.3c0,0,3.3,8.8,1.4,15.8
	C37.6,117.9,18.3,117.3,0,108.6z"/>
<path class="st1" d="M58.7,96.3c-5.3,2.2-10.9,3.9-16.7,5c-4.1,0.8-8.3,1.2-12.5,1.2c-3.7,0-7.4-0.3-11-0.9
	c-6.3-1.2-12.3-2.9-17.9-5.3L3,58.7l-0.2-44l14.8-3l4.5-0.9c2.4-0.5,5-0.7,7.5-0.8c2.5,0,5.1,0.3,7.5,0.8l5,1l14.3,2.9l-0.4,44
	L58.7,96.3z"/>
<path class="st2" d="M42,11.9v89.4c-4.1,0.8-8.3,1.2-12.5,1.2c-3.7,0-7.4-0.3-11-0.9v-2.3V97l-0.1-5.4v-2.3l-0.1-5.4v-2.3v-5.4v-2.3
	l-0.1-5.4v-2.3L18,60.7v-2.3L17.9,53v-2.3l-0.1-5.4V43l-0.1-5.4v-2.3l-0.1-5.4v-2.3l-0.2-5.4v-2.3l-0.1-5.4V12v-0.2l4.4-0.9
	c2.4-0.5,5-0.7,7.5-0.8c2.5,0,5.1,0.3,7.5,0.8L42,11.9L42,11.9z"/>
<path class="st3" d="M42,14.3v2.3c-4.1,0.5-8.2,0.8-12.3,0.8s-8.1-0.2-12.2-0.7v-2.3C25.7,15.3,33.9,15.3,42,14.3L42,14.3z"/>
<path class="st3" d="M42,20.8V23c-4,0.5-8,0.8-12.1,0.8s-8.2-0.2-12.3-0.7v-2.3C25.7,21.8,33.9,21.8,42,20.8z"/>
<path class="st3" d="M42,27.4v2.3c-3.9,0.5-7.9,0.8-11.9,0.8c-4.1,0-8.3-0.3-12.4-0.8v-2.3C25.8,28.4,34,28.4,42,27.4z"/>
<path class="st3" d="M42,35.2v2.3c-3.9,0.5-7.8,0.8-11.8,0.8c-4.2,0-8.3-0.3-12.4-0.8v-2.3C25.8,36.2,34,36.2,42,35.2z"/>
<path class="st3" d="M42,43v2.3c-3.8,0.5-7.7,0.8-11.6,0.8c-4.2,0-8.4-0.2-12.5-0.8V43C25.9,44,34,44,42,43z"/>
<path class="st3" d="M42,50.7V53c-3.8,0.5-7.6,0.8-11.5,0.8c-4.2,0-8.4-0.3-12.6-0.8v-2.3C25.9,51.8,34,51.8,42,50.7z"/>
<path class="st3" d="M42,58.5v2.3c-3.8,0.5-7.6,0.8-11.4,0.8c-4.2,0-8.5-0.3-12.6-0.8v-2.3C25.9,59.5,34.1,59.6,42,58.5z"/>
<path class="st3" d="M42,66.2v2.3c-3.7,0.5-7.5,0.8-11.2,0.8c-4.2,0-8.5-0.3-12.6-0.9v-2.3C26,67.3,34.1,67.3,42,66.2z"/>
<path class="st3" d="M42,74v2.3c-3.7,0.5-7.4,0.8-11.1,0.8c-4.2,0-8.5-0.3-12.6-0.9v-2.3C26.1,75,34.1,75.1,42,74z"/>
<path class="st3" d="M42,81.8v2.3c-3.6,0.5-7.3,0.8-11,0.8c-4.2,0-8.5-0.3-12.6-0.9v-2.3C26.1,82.8,34.2,82.9,42,81.8z"/>
<path class="st3" d="M42,89.5v2.3c-3.6,0.5-7.3,0.8-11,0.8c-4.3,0-8.5-0.3-12.7-1v-2.3C26.2,90.6,34.2,90.6,42,89.5z"/>
<path class="st3" d="M42,97.3v2.3c-3.6,0.5-7.2,0.8-10.9,0.8c-4.3,0-8.5-0.3-12.7-1V97C26.2,98.3,34.2,98.4,42,97.3z"/>
<path class="st4" d="M36.5,0l-0.3,4.8l-0.3,6.1c0,0-1.2,2.3-6.6,2.3s-6.6-1.6-6.6-1.6L22.5,9l-0.7-9H36.5z"/>
</svg>
